<!-- Generated by IcoMoon.io -->
<svg version="1.1" xmlns="http://www.w3.org/2000/svg" width="32" height="32" viewBox="0 0 32 32">
<title>alarm-1</title>
<path d="M27.313 28c-1.063 0-2-0.875-2-2v-6c0-3.625-2.063-6.875-5.313-8.438-0.25-2-1.938-3.563-4-3.563s-3.75 1.563-4 3.563c-3.25 1.5-5.313 4.813-5.313 8.438v6c0 1.125-0.938 2-2 2-0.375 0-0.688 0.313-0.688 0.688s0.313 0.625 0.688 0.625h8.063c0.313 1.563 1.625 2.688 3.25 2.688s2.938-1.125 3.25-2.688h8.063c0.375 0 0.688-0.25 0.688-0.625s-0.313-0.688-0.688-0.688zM16 30.688c-0.875 0-1.625-0.563-1.875-1.375h3.75c-0.25 0.813-1 1.375-1.875 1.375zM7.313 28c0.438-0.563 0.688-1.25 0.688-2v-6c0-3.25 1.938-6.125 4.938-7.375 0.25-0.125 0.375-0.375 0.375-0.625 0-1.5 1.188-2.688 2.688-2.688s2.688 1.188 2.688 2.688c0 0.25 0.125 0.5 0.375 0.625 3 1.25 4.938 4.125 4.938 7.375v6c0 0.75 0.25 1.438 0.688 2zM12 4c-4.438 0-8 3.563-8 8 0 0.375 0.313 0.688 0.688 0.688s0.625-0.313 0.625-0.688c0-3.688 3-6.688 6.688-6.688 0.375 0 0.688-0.25 0.688-0.625s-0.313-0.688-0.688-0.688zM12 1.313c0.375 0 0.688-0.25 0.688-0.625s-0.313-0.688-0.688-0.688c-6.625 0-12 5.375-12 12 0 0.375 0.313 0.688 0.688 0.688s0.625-0.313 0.625-0.688c0-5.875 4.813-10.688 10.688-10.688zM20 4c-0.375 0-0.688 0.313-0.688 0.688s0.313 0.625 0.688 0.625c3.688 0 6.688 3 6.688 6.688 0 0.375 0.25 0.688 0.625 0.688s0.688-0.313 0.688-0.688c0-4.438-3.563-8-8-8zM20 0c-0.375 0-0.688 0.313-0.688 0.688s0.313 0.625 0.688 0.625c5.875 0 10.688 4.813 10.688 10.688 0 0.375 0.25 0.688 0.625 0.688s0.688-0.313 0.688-0.688c0-6.625-5.375-12-12-12z"></path>
</svg>
