<!-- Generated by IcoMoon.io -->
<svg version="1.1" xmlns="http://www.w3.org/2000/svg" width="32" height="32" viewBox="0 0 32 32">
<title>scale-spread-1</title>
<path d="M12.813 18.188l-11.5 11.563v-7.063c0-0.375-0.25-0.688-0.625-0.688s-0.688 0.313-0.688 0.688v8.625c0 0.125 0 0.188 0.063 0.25 0 0.125 0.063 0.125 0.125 0.188 0 0 0 0.063 0 0.063s0.063 0 0.063 0.063c0.063 0 0.125 0.063 0.188 0.063 0.063 0.063 0.125 0.063 0.25 0.063h8.625c0.375 0 0.688-0.313 0.688-0.688s-0.313-0.625-0.688-0.625h-7.063l11.5-11.563c0.313-0.25 0.25-0.688 0-0.938s-0.688-0.25-0.938 0zM32 0.625c0-0.063 0-0.125-0.063-0.188 0-0.125-0.063-0.188-0.125-0.25 0 0 0 0 0 0-0.063-0.063-0.125-0.125-0.25-0.125-0.063-0.063-0.125-0.063-0.25-0.063 0 0 0 0 0 0h-8.625c-0.375 0-0.688 0.313-0.688 0.688s0.313 0.625 0.688 0.625h7.063l-11.563 11.563c-0.25 0.25-0.25 0.688 0 0.938 0.125 0.125 0.313 0.188 0.438 0.188 0.188 0 0.375-0.063 0.5-0.188l11.563-11.563v7.063c0 0.375 0.25 0.688 0.625 0.688s0.688-0.313 0.688-0.688v-8.625c0 0 0-0.063 0-0.063z"></path>
</svg>
