<!-- Generated by IcoMoon.io -->
<svg version="1.1" xmlns="http://www.w3.org/2000/svg" width="32" height="32" viewBox="0 0 32 32">
<title>fontello-24</title>
<path d="M3.313 5.375c0.563 0 1.063 0.188 1.438 0.563s0.625 0.875 0.625 1.375c0 0.563-0.25 1.063-0.625 1.438s-0.875 0.625-1.438 0.625c-0.5 0-1-0.25-1.375-0.625s-0.563-0.875-0.563-1.438c0-0.5 0.188-1 0.563-1.375s0.875-0.563 1.375-0.563M3.313 4c-1.813 0-3.313 1.5-3.313 3.313s1.5 3.313 3.313 3.313c1.813 0 3.313-1.438 3.313-3.313 0-1.813-1.438-3.313-3.313-3.313zM3.313 13.375c0.563 0 1.063 0.188 1.438 0.563s0.625 0.875 0.625 1.375c0 0.563-0.25 1.063-0.625 1.438s-0.875 0.625-1.438 0.625c-0.5 0-1-0.25-1.375-0.625s-0.563-0.875-0.563-1.438c0-0.5 0.188-1 0.563-1.375s0.875-0.563 1.375-0.563M3.313 12c-1.813 0-3.313 1.5-3.313 3.313s1.5 3.313 3.313 3.313c1.813 0 3.313-1.438 3.313-3.313 0-1.813-1.438-3.313-3.313-3.313zM3.313 21.375c0.563 0 1.063 0.188 1.438 0.563s0.625 0.875 0.625 1.375c0 0.563-0.25 1.063-0.625 1.438s-0.875 0.625-1.438 0.625c-0.5 0-1-0.25-1.375-0.625s-0.563-0.875-0.563-1.438c0-0.5 0.188-1 0.563-1.375s0.875-0.563 1.375-0.563M3.313 20c-1.813 0-3.313 1.5-3.313 3.313s1.5 3.313 3.313 3.313c1.813 0 3.313-1.438 3.313-3.313 0-1.813-1.438-3.313-3.313-3.313zM30.625 6.625h-22.625v1.375h22.625zM30.625 14.625h-22.625v1.375h22.625zM30.625 22.625h-22.625v1.375h22.625z"></path>
</svg>
