<!-- Generated by IcoMoon.io -->
<svg version="1.1" xmlns="http://www.w3.org/2000/svg" width="32" height="32" viewBox="0 0 32 32">
<title>book-6</title>
<path d="M30.375 2.813c-0.25-0.125-0.438-0.125-0.688-0.063l-13 6.563-13.063-6.563c-0.188-0.063-0.438-0.063-0.625 0.063s-0.313 0.313-0.313 0.563v20.688c0 0.25 0.125 0.438 0.375 0.563l13.313 6.688c0 0 0 0 0 0 0.125 0 0.188 0.063 0.313 0.063 0.063 0 0.188-0.063 0.25-0.063 0 0 0 0 0 0l13.375-6.688c0.188-0.125 0.375-0.313 0.375-0.563v-20.688c0-0.25-0.125-0.438-0.313-0.563zM4 4.438l12 6v19.188l-12-6zM29.313 23.625l-12 6v-19.188l12-6zM5.688 1.938l10.688 5.375c0.063 0.063 0.188 0.063 0.313 0.063 0.063 0 0.188 0 0.313-0.063l10.625-5.375c0.313-0.188 0.5-0.563 0.313-0.875-0.188-0.375-0.563-0.5-0.875-0.313l-10.375 5.25-10.375-5.25c-0.313-0.188-0.75-0.063-0.875 0.313-0.188 0.313-0.063 0.688 0.25 0.875z"></path>
</svg>
