<!-- Generated by IcoMoon.io -->
<svg version="1.1" xmlns="http://www.w3.org/2000/svg" width="32" height="32" viewBox="0 0 32 32">
<title>calculator-2</title>
<path d="M24.688 0h-18.688c-1.125 0-2 0.875-2 2v28c0 1.125 0.875 2 2 2h18.688c1.063 0 2-0.875 2-2v-28c0-1.125-0.938-2-2-2zM25.313 30c0 0.375-0.25 0.688-0.625 0.688h-18.688c-0.375 0-0.688-0.313-0.688-0.688v-28c0-0.375 0.313-0.688 0.688-0.688h18.688c0.375 0 0.625 0.313 0.625 0.688zM23.313 2.688h-16c-0.375 0-0.625 0.25-0.625 0.625v6.688c0 0.375 0.25 0.688 0.625 0.688h16c0.375 0 0.688-0.313 0.688-0.688v-6.688c0-0.375-0.313-0.625-0.688-0.625zM22.688 9.313h-14.688v-5.313h14.688zM20.688 8c0.375 0 0.625-0.313 0.625-0.688v-1.313c0-0.375-0.25-0.688-0.625-0.688s-0.688 0.313-0.688 0.688v1.313c0 0.375 0.313 0.688 0.688 0.688zM10 14.688h-1.313c-0.375 0-0.688 0.25-0.688 0.625s0.313 0.688 0.688 0.688h1.313c0.375 0 0.688-0.313 0.688-0.688s-0.313-0.625-0.688-0.625zM14 14.688h-1.313c-0.375 0-0.688 0.25-0.688 0.625s0.313 0.688 0.688 0.688h1.313c0.375 0 0.688-0.313 0.688-0.688s-0.313-0.625-0.688-0.625zM16.688 16h1.313c0.375 0 0.688-0.313 0.688-0.688s-0.313-0.625-0.688-0.625h-1.313c-0.375 0-0.688 0.25-0.688 0.625s0.313 0.688 0.688 0.688zM22 14.688h-1.313c-0.375 0-0.688 0.25-0.688 0.625s0.313 0.688 0.688 0.688h1.313c0.375 0 0.688-0.313 0.688-0.688s-0.313-0.625-0.688-0.625zM10 18.688h-1.313c-0.375 0-0.688 0.25-0.688 0.625s0.313 0.688 0.688 0.688h1.313c0.375 0 0.688-0.313 0.688-0.688s-0.313-0.625-0.688-0.625zM14 18.688h-1.313c-0.375 0-0.688 0.25-0.688 0.625s0.313 0.688 0.688 0.688h1.313c0.375 0 0.688-0.313 0.688-0.688s-0.313-0.625-0.688-0.625zM16.688 20h1.313c0.375 0 0.688-0.313 0.688-0.688s-0.313-0.625-0.688-0.625h-1.313c-0.375 0-0.688 0.25-0.688 0.625s0.313 0.688 0.688 0.688zM22 18.688h-1.313c-0.375 0-0.688 0.25-0.688 0.625s0.313 0.688 0.688 0.688h1.313c0.375 0 0.688-0.313 0.688-0.688s-0.313-0.625-0.688-0.625zM10 22.688h-1.313c-0.375 0-0.688 0.25-0.688 0.625s0.313 0.688 0.688 0.688h1.313c0.375 0 0.688-0.313 0.688-0.688s-0.313-0.625-0.688-0.625zM14 22.688h-1.313c-0.375 0-0.688 0.25-0.688 0.625s0.313 0.688 0.688 0.688h1.313c0.375 0 0.688-0.313 0.688-0.688s-0.313-0.625-0.688-0.625zM16.688 24h1.313c0.375 0 0.688-0.313 0.688-0.688s-0.313-0.625-0.688-0.625h-1.313c-0.375 0-0.688 0.25-0.688 0.625s0.313 0.688 0.688 0.688zM22 22.688h-1.313c-0.375 0-0.688 0.25-0.688 0.625s0.313 0.688 0.688 0.688h1.313c0.375 0 0.688-0.313 0.688-0.688s-0.313-0.625-0.688-0.625zM10 26.688h-1.313c-0.375 0-0.688 0.25-0.688 0.625s0.313 0.688 0.688 0.688h1.313c0.375 0 0.688-0.313 0.688-0.688s-0.313-0.625-0.688-0.625zM14 26.688h-1.313c-0.375 0-0.688 0.25-0.688 0.625s0.313 0.688 0.688 0.688h1.313c0.375 0 0.688-0.313 0.688-0.688s-0.313-0.625-0.688-0.625zM22 26.688h-5.313c-0.375 0-0.688 0.25-0.688 0.625s0.313 0.688 0.688 0.688h5.313c0.375 0 0.688-0.313 0.688-0.688s-0.313-0.625-0.688-0.625z"></path>
</svg>
