<?xml version="1.0" encoding="utf-8"?>
<!-- Generator: Adobe Illustrator 22.0.1, SVG Export Plug-In . SVG Version: 6.00 Build 0)  -->
<svg version="1.1" id="Layer_1" xmlns="http://www.w3.org/2000/svg" xmlns:xlink="http://www.w3.org/1999/xlink" x="0px" y="0px"
	 viewBox="0 0 1024 1024" style="enable-background:new 0 0 1024 1024;" xml:space="preserve">
<path d="M64.1,981.3h853.3c35.3,0,64-28.7,64-64v-768c0-35.3-28.7-64-64-64h-64v-64c0-11.8-9.6-21.3-21.3-21.3s-21.3,9.6-21.3,21.3
	v64h-128v-64c0-11.8-9.6-21.3-21.3-21.3s-21.3,9.6-21.3,21.3v64h-128v-64c0-11.8-9.6-21.3-21.3-21.3s-21.3,9.6-21.3,21.3v64h-128
	v-64C341.4,9.5,331.8,0,320,0s-21.3,9.6-21.3,21.3v64h-128v-64c0-11.8-9.6-21.3-21.3-21.3S128,9.5,128,21.3v64H64
	c-35.3,0-64,28.7-64,64v768C0,952.6,28.7,981.3,64.1,981.3L64.1,981.3z M63.9,128h64v21.3c0,11.8,9.6,21.3,21.3,21.3
	s21.3-9.6,21.3-21.3V128h128v21.3c0,11.8,9.6,21.3,21.3,21.3s21.3-9.6,21.3-21.3V128h128v21.3c0,11.8,9.6,21.3,21.3,21.3
	s21.3-9.6,21.3-21.3V128h128v21.3c0,11.8,9.6,21.3,21.3,21.3s21.3-9.6,21.3-21.3V128h128v21.3c0,11.8,9.6,21.3,21.3,21.3
	s21.3-9.6,21.3-21.3V128h64c11.8,0,21.3,9.6,21.3,21.3v768c0,11.8-9.6,21.3-21.3,21.3H64c-11.8,0-21.3-9.6-21.3-21.3v-768
	C42.7,137.6,52.2,128,63.9,128L63.9,128z M320,853.3h341.3c0.3,0,0.6,0,0.9,0h127.1c35.3,0,64-28.7,64-64V362.6
	c0-35.3-28.7-64-64-64h-256c-35.3,0-64,28.7-64,64v106.7H320.9c-0.3,0-0.6,0-0.9,0H192c-35.3,0-64,28.7-64,64v256
	c0,35.3,28.7,64,64,64h127.1C319.4,853.3,319.7,853.3,320,853.3L320,853.3z M512,810.7v-128h128v128C640,810.7,512,810.7,512,810.7z
	 M341.3,810.7v-128h128v128C469.3,810.7,341.3,810.7,341.3,810.7z M682.7,810.6v-128h128v106.6c0,11.8-9.6,21.3-21.3,21.3
	C789.3,810.6,682.7,810.6,682.7,810.6z M170.7,682.6h128v128H192c-11.8,0-21.3-9.6-21.3-21.3V682.6z M512,640V512h128v128H512z
	 M341.3,640V512h128v128H341.3z M682.7,639.9V512h128v128H682.7z M170.7,639.9V533.3c0-11.8,9.6-21.3,21.3-21.3h106.7v128H170.7z
	 M682.7,469.3v-128h106.7c11.8,0,21.3,9.6,21.3,21.3v106.7H682.7z M512,469.3V362.6c0-11.8,9.6-21.3,21.3-21.3H640v128H512z"/>
</svg>
