<!-- Generated by IcoMoon.io -->
<svg version="1.1" xmlns="http://www.w3.org/2000/svg" width="32" height="32" viewBox="0 0 32 32">
<title>check-circle-2-1</title>
<path d="M22.188 10.875l-9.5 8.875-2.875-2.875c-0.25-0.25-0.688-0.25-0.938 0s-0.25 0.688 0 0.938l3.313 3.313c0.125 0.125 0.313 0.188 0.5 0.188 0.125 0 0.313-0.063 0.438-0.188l10-9.313c0.25-0.25 0.25-0.688 0-0.938s-0.625-0.25-0.938 0zM16 0c-8.813 0-16 7.188-16 16s7.188 16 16 16c8.813 0 16-7.188 16-16s-7.188-16-16-16zM16 30.688c-8.063 0-14.688-6.625-14.688-14.688s6.625-14.688 14.688-14.688c8.063 0 14.688 6.625 14.688 14.688s-6.625 14.688-14.688 14.688z"></path>
</svg>
