<!-- Generated by IcoMoon.io -->
<svg version="1.1" xmlns="http://www.w3.org/2000/svg" width="32" height="32" viewBox="0 0 32 32">
<title>clock-2</title>
<path d="M16 0c-8.813 0-16 7.188-16 16s7.188 16 16 16c8.813 0 16-7.188 16-16s-7.188-16-16-16zM16 30.688c-8.063 0-14.688-6.625-14.688-14.688s6.625-14.688 14.688-14.688c8.063 0 14.688 6.625 14.688 14.688s-6.625 14.688-14.688 14.688zM16 15.688v-7c0-0.375-0.313-0.688-0.688-0.688s-0.625 0.313-0.625 0.688v7.313c0 0.188 0.063 0.375 0.188 0.5l8 7.313c0.125 0.125 0.313 0.188 0.438 0.188 0.188 0 0.375-0.063 0.5-0.188 0.25-0.313 0.25-0.75 0-1z"></path>
</svg>
