<!-- Generated by IcoMoon.io -->
<svg version="1.1" xmlns="http://www.w3.org/2000/svg" width="32" height="32" viewBox="0 0 32 32">
<title>delete-1-1</title>
<path d="M16.938 16l14.875-14.875c0.25-0.25 0.25-0.688 0-0.938s-0.688-0.25-0.938 0l-14.875 14.875-14.875-14.875c-0.25-0.25-0.688-0.25-0.938 0s-0.25 0.688 0 0.938l14.875 14.875-14.875 14.875c-0.25 0.25-0.25 0.688 0 0.938 0.125 0.125 0.313 0.188 0.5 0.188 0.125 0 0.313-0.063 0.438-0.188l14.875-14.875 14.875 14.875c0.125 0.125 0.313 0.188 0.438 0.188 0.188 0 0.375-0.063 0.5-0.188 0.25-0.25 0.25-0.688 0-0.938z"></path>
</svg>
