<!-- Generated by IcoMoon.io -->
<svg version="1.1" xmlns="http://www.w3.org/2000/svg" width="32" height="32" viewBox="0 0 32 32">
<title>delete-3</title>
<path d="M15.313 0c-8.438 0-15.313 6.875-15.313 15.313 0 4.063 1.563 7.938 4.5 10.813 2.875 2.938 6.688 4.563 10.813 4.563 0 0 0 0 0 0 8.438 0 15.313-6.875 15.375-15.313 0-8.438-6.875-15.375-15.375-15.375zM15.313 29.313v0c-3.75 0-7.25-1.438-9.875-4.125-2.688-2.625-4.125-6.125-4.125-9.875 0.063-7.688 6.313-14 14.063-14 7.688 0.063 14 6.313 13.938 14.063 0 7.688-6.25 13.938-14 13.938zM21.5 9.188c-0.313-0.25-0.688-0.25-1 0l-5.188 5.188-5.125-5.188c-0.313-0.25-0.688-0.25-1 0-0.25 0.25-0.25 0.688 0 0.938l5.188 5.188-5.188 5.188c-0.25 0.25-0.25 0.688 0 0.938 0.125 0.125 0.313 0.188 0.5 0.188 0.125 0 0.313-0.063 0.438-0.188l5.188-5.188 5.188 5.25c0.125 0.125 0.313 0.188 0.5 0.188 0.125 0 0.313-0.063 0.438-0.188 0.25-0.313 0.25-0.688 0-0.938l-5.188-5.25 5.25-5.125c0.25-0.313 0.25-0.688 0-1z"></path>
</svg>
