<!-- Generated by IcoMoon.io -->
<svg version="1.1" xmlns="http://www.w3.org/2000/svg" width="32" height="32" viewBox="0 0 32 32">
<title>cloud-1</title>
<path d="M29.188 19.875c0.375-1.5 0.063-3.063-0.813-4.313-1-1.438-2.625-2.25-4.375-2.25 0 0 0 0 0 0-1.375-3.25-4.5-5.375-8-5.375-4.563 0-8.313 3.563-8.625 8.063-4.125 0.313-7.375 3.75-7.375 8 0 4.375 3.563 8 8 8h17.313c3.688 0 6.688-3 6.688-6.688 0-2.188-1.063-4.188-2.813-5.438zM25.313 30.688h-17.313c-3.688 0-6.688-3-6.688-6.688s3-6.688 6.688-6.688c0.375 0 0.688-0.313 0.688-0.688 0-4.063 3.25-7.313 7.313-7.313 3.125 0 5.875 1.938 6.938 4.875 0.063 0.313 0.375 0.5 0.688 0.438 1.438-0.125 2.813 0.5 3.625 1.688 0.75 1.063 0.938 2.375 0.5 3.625-0.063 0.313 0.063 0.625 0.313 0.813 1.625 0.938 2.625 2.688 2.625 4.563 0 2.938-2.438 5.375-5.375 5.375z"></path>
</svg>
