<!-- Generated by IcoMoon.io -->
<svg version="1.1" xmlns="http://www.w3.org/2000/svg" width="32" height="32" viewBox="0 0 32 32">
<title>compass-1</title>
<path d="M16 0c-8.813 0-16 7.188-16 16s7.188 16 16 16c8.813 0 16-7.188 16-16s-7.188-16-16-16zM16 30.688c-8.063 0-14.688-6.625-14.688-14.688s6.625-14.688 14.688-14.688c8.063 0 14.688 6.625 14.688 14.688s-6.625 14.688-14.688 14.688zM23.75 7.375l-11.313 4.688c0 0-0.063 0-0.063 0s0 0-0.063 0.063c0 0-0.063 0-0.063 0 0 0.063-0.063 0.063-0.063 0.063 0 0.063 0 0.063-0.063 0.063 0 0 0 0.063 0 0.063-0.063 0.063-0.063 0.063-0.063 0.063s0 0 0 0.063l-4.688 11.313c-0.063 0.25-0.063 0.563 0.125 0.75 0.125 0.125 0.313 0.188 0.5 0.188 0.063 0 0.188-0.063 0.25-0.063l11.313-4.688c0 0 0.063 0 0.063 0s0.063 0 0.063-0.063c0 0 0.063 0 0.063 0 0-0.063 0.063-0.063 0.063-0.125 0 0 0 0 0.063 0 0-0.063 0-0.063 0.063-0.125 0 0 0 0 0 0s0 0 0-0.063l4.688-11.313c0.125-0.25 0.063-0.563-0.125-0.75s-0.5-0.25-0.75-0.125zM9.25 22.75l3.625-8.875 5.25 5.25zM19.125 18.125l-5.25-5.25 8.875-3.625z"></path>
</svg>
