<!-- Generated by IcoMoon.io -->
<svg version="1.1" xmlns="http://www.w3.org/2000/svg" width="32" height="32" viewBox="0 0 32 32">
<title>delete-2</title>
<path d="M16 0c-8.813 0-16 7.188-16 16s7.188 16 16 16c8.813 0 16-7.188 16-16s-7.188-16-16-16zM16 30.688c-8.063 0-14.688-6.625-14.688-14.688s6.625-14.688 14.688-14.688c8.063 0 14.688 6.625 14.688 14.688s-6.625 14.688-14.688 14.688zM22.125 7c-1.813-1.25-3.938-1.875-6.125-1.875-6 0-10.875 4.875-10.875 10.875 0 2.188 0.625 4.313 1.875 6.125l0.438 0.688 15.375-15.375zM7.688 20.688c-0.813-1.438-1.25-3.063-1.25-4.688 0-5.25 4.313-9.563 9.563-9.563 1.625 0 3.25 0.438 4.688 1.25zM25 9.875l-0.438-0.688-15.375 15.375 0.688 0.438c1.813 1.25 3.938 1.875 6.125 1.875 6 0 10.875-4.875 10.875-10.875 0-2.188-0.625-4.313-1.875-6.125zM16 25.563c-1.625 0-3.25-0.438-4.688-1.25l13-13c0.813 1.438 1.25 3.063 1.25 4.688 0 5.25-4.313 9.563-9.563 9.563z"></path>
</svg>
