<!-- Generated by IcoMoon.io -->
<svg version="1.1" xmlns="http://www.w3.org/2000/svg" width="32" height="32" viewBox="0 0 32 32">
<title>imac</title>
<path d="M29.313 1.313h-26.625c-1.5 0-2.688 1.25-2.688 2.813v19.75c0 1.563 1.188 2.813 2.688 2.813h12.625v1.313h-8.625c-0.375 0-0.688 0.313-0.688 0.688s0.313 0.625 0.688 0.625h18.625c0.375 0 0.688-0.25 0.688-0.625s-0.313-0.688-0.688-0.688h-8.625v-1.313h12.625c1.5 0 2.688-1.25 2.688-2.813v-19.75c0-1.563-1.188-2.813-2.688-2.813zM2.688 2.688h26.625c0.75 0 1.375 0.625 1.375 1.438v15.875h-29.375v-15.875c0-0.813 0.625-1.438 1.375-1.438zM29.313 25.313h-26.625c-0.75 0-1.375-0.625-1.375-1.438v-2.563h29.375v2.563c0 0.813-0.625 1.438-1.375 1.438zM17.313 23.313c0 0.75-0.563 1.375-1.313 1.375s-1.313-0.625-1.313-1.375c0-0.688 0.563-1.313 1.313-1.313s1.313 0.625 1.313 1.313z"></path>
</svg>
