<!-- Generated by IcoMoon.io -->
<svg version="1.1" xmlns="http://www.w3.org/2000/svg" width="32" height="32" viewBox="0 0 32 32">
<title>fontello-1</title>
<path d="M15.313 0c-8.438 0-15.313 6.875-15.313 15.313 0 8.5 6.875 15.313 15.313 15.313s15.313-6.813 15.313-15.313c0-8.438-6.813-15.313-15.313-15.313zM28.25 20.75c-0.375 0.875-0.813 1.625-1.313 2.438-0.5 0.688-1.063 1.438-1.688 2-0.625 0.688-1.375 1.25-2.063 1.75-0.813 0.5-1.563 0.938-2.375 1.313-0.875 0.375-1.75 0.625-2.688 0.813-0.875 0.188-1.813 0.313-2.813 0.313-0.938 0-1.875-0.125-2.813-0.313-0.875-0.188-1.75-0.438-2.625-0.813-0.813-0.375-1.625-0.813-2.375-1.313s-1.438-1.063-2.063-1.75c-0.625-0.563-1.188-1.313-1.75-2-0.438-0.813-0.875-1.563-1.25-2.438-0.375-0.813-0.625-1.688-0.813-2.625-0.188-0.875-0.25-1.813-0.25-2.813 0-0.938 0.063-1.875 0.25-2.813 0.188-0.875 0.438-1.75 0.813-2.625 0.375-0.813 0.813-1.625 1.25-2.375 0.563-0.75 1.125-1.438 1.75-2.063s1.313-1.188 2.063-1.75c0.75-0.438 1.563-0.875 2.375-1.25 0.875-0.375 1.75-0.625 2.625-0.813 0.938-0.188 1.875-0.25 2.813-0.25s1.938 0.063 2.813 0.25c0.938 0.188 1.813 0.438 2.688 0.813 0.813 0.375 1.563 0.813 2.375 1.25 0.688 0.563 1.438 1.125 2.063 1.75s1.188 1.313 1.688 2.063c0.5 0.75 0.938 1.563 1.313 2.375 0.375 0.875 0.625 1.75 0.813 2.625 0.188 0.938 0.313 1.875 0.313 2.813 0 1-0.125 1.938-0.313 2.813-0.188 0.938-0.438 1.813-0.813 2.625zM17.375 15.125l-8.813 8.813-1-0.938 7.875-7.875-7.875-7.875 1-0.938zM25.75 15.125v0l-8.813 8.813-0.938-0.938 7.875-7.875-7.875-7.875 0.938-0.938 8.813 8.813z"></path>
</svg>
