<!-- Generated by IcoMoon.io -->
<svg version="1.1" xmlns="http://www.w3.org/2000/svg" width="32" height="32" viewBox="0 0 32 32">
<title>download</title>
<path d="M15.5 25.125c0.125 0.125 0.313 0.188 0.5 0.188s0.375-0.063 0.5-0.188l9.313-9.313c0.188-0.188 0.25-0.5 0.125-0.75-0.063-0.25-0.313-0.375-0.625-0.375h-4v-14c0-0.375-0.25-0.688-0.625-0.688h-9.375c-0.375 0-0.625 0.313-0.625 0.688v14h-4c-0.313 0-0.563 0.125-0.625 0.375-0.125 0.25-0.063 0.563 0.125 0.75zM11.313 16c0.375 0 0.688-0.313 0.688-0.688v-14h8v14c0 0.188 0.063 0.375 0.188 0.5s0.313 0.188 0.5 0.188h3.063l-7.75 7.75-7.75-7.75zM31.313 24c-0.375 0-0.625 0.313-0.625 0.688v6h-29.375v-6c0-0.375-0.25-0.688-0.625-0.688s-0.688 0.313-0.688 0.688v6.625c0 0.375 0.313 0.688 0.688 0.688h30.625c0.375 0 0.688-0.313 0.688-0.688v-6.625c0-0.375-0.313-0.688-0.688-0.688z"></path>
</svg>
