<!-- Generated by IcoMoon.io -->
<svg version="1.1" xmlns="http://www.w3.org/2000/svg" width="32" height="32" viewBox="0 0 32 32">
<title>edit-modify-streamline</title>
<path d="M24 15.313c-0.375 0-0.688 0.313-0.688 0.688v14.688h-22v-26.688h18c0.375 0 0.688-0.313 0.688-0.688s-0.313-0.625-0.688-0.625h-19.313v29.313h24.688v-16c0-0.375-0.313-0.688-0.688-0.688zM31.875 1.313c-0.375-0.813-1.125-1.313-1.938-1.313-0.5 0-1 0.188-1.375 0.625l-1.875 1.875c0 0 0 0 0 0s0 0 0 0l-10.875 10.813c0 0.063-0.063 0.125-0.125 0.188l-1.875 3.75c-0.125 0.313-0.063 0.625 0.125 0.813 0.125 0.125 0.313 0.188 0.5 0.188 0.063 0 0.188 0 0.313-0.063l3.75-1.875c0.063-0.063 0.125-0.125 0.188-0.125l12.688-12.75c0.625-0.625 0.813-1.375 0.5-2.125zM17.813 15.125l-1.875 0.938 0.938-1.875 10.25-10.313 1 1zM30.438 2.5l-1.375 1.375-0.938-0.938 1.375-1.375c0.125-0.188 0.313-0.25 0.438-0.25 0.313 0 0.563 0.25 0.688 0.5s0.063 0.438-0.188 0.688z"></path>
</svg>
