<!-- Generated by IcoMoon.io -->
<svg version="1.1" xmlns="http://www.w3.org/2000/svg" width="32" height="32" viewBox="0 0 32 32">
<title>location-nav</title>
<path d="M16 6c-2.563 0-4.625 2.063-4.625 4.688 0 2.563 2.063 4.625 4.625 4.625s4.688-2.063 4.688-4.625c0-2.625-2.125-4.688-4.688-4.688zM16 13.375c-1.5 0-2.688-1.25-2.688-2.688 0-1.5 1.188-2.75 2.688-2.75 0.688 0 1.375 0.313 1.938 0.813 0.5 0.5 0.813 1.188 0.813 1.938 0 1.5-1.25 2.688-2.75 2.688zM16 0c-5.875 0-10.625 4.813-10.625 10.688 0 5.625 9.688 20.375 10.063 21 0.125 0.188 0.375 0.313 0.563 0.313 0.25 0 0.438-0.125 0.563-0.313 0.438-0.625 10.125-15.375 10.125-21 0-5.875-4.813-10.688-10.688-10.688zM16 28.938c-1.188-1.875-3.188-5.125-4.938-8.438-1.75-3.25-3.75-7.563-3.75-9.813 0-4.813 3.875-8.75 8.688-8.75 2.313 0 4.5 0.875 6.188 2.563 1.625 1.625 2.563 3.875 2.563 6.188 0 3.313-4.438 11.438-8.75 18.25z"></path>
</svg>
