<!-- Generated by IcoMoon.io -->
<svg version="1.1" xmlns="http://www.w3.org/2000/svg" width="32" height="32" viewBox="0 0 32 32">
<title>alert-1</title>
<path d="M15.563 0h-0.25c-8.563 0.125-15.438 7.125-15.313 15.625 0.125 8.438 6.75 15.063 15.063 15.063h0.313c4.063-0.063 7.938-1.75 10.875-4.688s4.5-6.875 4.438-10.938c-0.188-8.438-6.813-15.063-15.125-15.063zM25.313 25.063c-2.688 2.688-6.25 4.188-10 4.25h-0.25c-7.563 0-13.563-6-13.75-13.75-0.125-7.688 6.188-14.063 14.063-14.25h0.188c7.625 0 13.625 6.063 13.75 13.75 0.063 3.75-1.375 7.313-4 10zM15.313 18c0.375 0 0.688-0.313 0.688-0.688v-9.313c0-0.375-0.313-0.688-0.688-0.688s-0.625 0.313-0.625 0.688v9.313c0 0.375 0.25 0.688 0.625 0.688zM15.313 20.688c0 0 0 0 0 0-0.75 0-1.313 0.625-1.313 1.313 0 0.75 0.625 1.313 1.313 1.313 0 0 0.063 0 0.063 0 0.688 0 1.313-0.625 1.313-1.313-0.063-0.75-0.625-1.313-1.375-1.313z"></path>
</svg>
