<!-- Generated by IcoMoon.io -->
<svg version="1.1" xmlns="http://www.w3.org/2000/svg" width="32" height="32" viewBox="0 0 32 32">
<title>document-1</title>
<path d="M27.938 8.438c0-0.125-0.063-0.188-0.125-0.25l-8-8c-0.063-0.063-0.125-0.125-0.25-0.125-0.063-0.063-0.125-0.063-0.25-0.063h-14.625c-0.375 0-0.688 0.313-0.688 0.688v30.625c0 0.375 0.313 0.688 0.688 0.688h22.625c0.375 0 0.688-0.313 0.688-0.688v-22.625c0-0.125 0-0.188-0.063-0.25zM20 2.25l5.75 5.75h-5.75zM5.313 30.688v-29.375h13.375v7.375c0 0.375 0.25 0.625 0.625 0.625h7.375v21.375zM10 10.688h6c0.375 0 0.688-0.313 0.688-0.688s-0.313-0.688-0.688-0.688h-6c-0.375 0-0.688 0.313-0.688 0.688s0.313 0.688 0.688 0.688zM22 13.313h-12c-0.375 0-0.688 0.313-0.688 0.688s0.313 0.688 0.688 0.688h12c0.375 0 0.688-0.313 0.688-0.688s-0.313-0.688-0.688-0.688zM22 17.313h-12c-0.375 0-0.688 0.313-0.688 0.688s0.313 0.688 0.688 0.688h12c0.375 0 0.688-0.313 0.688-0.688s-0.313-0.688-0.688-0.688zM22 21.313h-12c-0.375 0-0.688 0.313-0.688 0.688s0.313 0.688 0.688 0.688h12c0.375 0 0.688-0.313 0.688-0.688s-0.313-0.688-0.688-0.688zM22 25.313h-12c-0.375 0-0.688 0.313-0.688 0.688s0.313 0.688 0.688 0.688h12c0.375 0 0.688-0.313 0.688-0.688s-0.313-0.688-0.688-0.688z"></path>
</svg>
