<!-- Generated by IcoMoon.io -->
<svg version="1.1" xmlns="http://www.w3.org/2000/svg" width="32" height="32" viewBox="0 0 32 32">
<title>globe-1</title>
<path d="M27.875 5.25c0 0 0 0 0-0.063-1.938-2.125-4.438-3.688-7.25-4.563 0 0 0 0 0 0-1.5-0.438-3-0.688-4.625-0.688-8.813 0-16 7.188-16 16s7.188 16 16 16c8.813 0 16-7.188 16-16 0-4.125-1.563-7.875-4.125-10.688zM26.625 5.813c-0.25 0.875-0.938 3.063-2.75 4.063-2.313-0.438-4.625 0.875-5.125 1.438-0.313 0.375-0.188 0.75-0.125 0.875 0.125 0.25 0.313 0.375 0.563 0.438 0.188 0.25 0.625 1.25 0.813 2.125 0.063 0.125 0.125 0.25 0.188 0.313 0.625 0.688 1.563 0.563 2.188 0.375 0.063 0.688-0.938 1.813-1.938 2.875-0.75 0.75-1.125 1.188-1.125 1.625 0 0.563 0.438 0.938 0.75 1.188 0.063 0.063 0.188 0.188 0.25 0.25-0.063 0-0.063 0.063-0.125 0.125-0.875 0.813-1.75 1.125-1.75 1.125-0.25 0.125-0.438 0.375-0.438 0.625 0 1.75-1.063 2.688-3.25 2.688-0.438-0.313-1.375-2.188-1.438-2.688 0-0.125 0.125-0.438 0.313-0.688 0.188-0.375 0.375-0.813 0.375-1.313 0-0.75-0.813-1.688-1.313-2.25-0.063-0.813-0.313-1.438-0.75-1.875-0.75-0.688-1.875-0.625-2.938-0.563-0.313 0-0.688 0.063-1 0.063-1.313 0-1.313-1.938-1.313-2s0-4.125 2.75-4.688c1.938-0.375 2.5-0.063 2.563 0.063 0 0.188 0.063 0.313 0.188 0.438 1.188 1.188 3 0.75 4.438 0.438 0.563-0.125 1.063-0.25 1.375-0.25s0.625-0.25 0.688-0.563c0.25-1.813 0.375-4.063-0.5-4.688-0.375-0.188-0.75-0.25-1.125 0-0.5 0.188-0.938 0.25-1.25 0.063-0.375-0.188-0.438-0.563-0.5-0.875-0.063-0.875 2.625-2.063 5.125-2.625 2.375 0.813 4.5 2.125 6.188 3.875zM16 30.625c-8.063 0-14.688-6.625-14.688-14.688s6.625-14.688 14.688-14.688c0.563 0 1.125 0.063 1.688 0.125-1.813 0.688-3.813 1.75-3.688 3.313 0.063 0.875 0.5 1.563 1.125 1.938 0.688 0.375 1.5 0.375 2.313 0 0.125 0.5 0.063 1.563-0.063 2.688-0.313 0.063-0.688 0.125-1 0.25-1.125 0.25-2.375 0.563-3.125 0-0.063-0.188-0.188-0.438-0.438-0.625-0.688-0.563-1.875-0.688-3.625-0.313-3.813 0.75-3.875 5.75-3.875 6 0 1.125 0.563 3.313 2.688 3.313 0.375 0 0.688 0 1.063-0.063 0.813 0 1.625-0.063 1.938 0.25 0.25 0.188 0.313 0.563 0.313 1.125 0 0.188 0.063 0.375 0.188 0.5 0.625 0.563 1.125 1.313 1.188 1.5 0 0.188-0.125 0.5-0.313 0.75-0.188 0.375-0.375 0.813-0.375 1.25 0 0.688 1.375 4 2.688 4 2.75 0 4.438-1.25 4.625-3.5 0.438-0.25 1.125-0.625 1.813-1.313 0.375-0.375 0.563-0.75 0.5-1.125 0-0.563-0.438-0.938-0.688-1.188-0.063-0.063-0.125-0.125-0.188-0.188 0.125-0.188 0.438-0.5 0.625-0.688 1.313-1.313 3.375-3.5 1.75-5.125-0.188-0.188-0.5-0.25-0.75-0.125-0.313 0.125-0.813 0.313-1.125 0.188-0.313-1.25-0.688-1.938-1-2.375 0.75-0.375 2.188-0.938 3.563-0.563 0.188 0.063 0.313 0 0.5-0.063 1.875-0.938 2.875-2.875 3.313-4.188 1.938 2.5 3.063 5.563 3.063 8.938 0 8.063-6.625 14.688-14.688 14.688z"></path>
</svg>
