<!-- Generated by IcoMoon.io -->
<svg version="1.1" xmlns="http://www.w3.org/2000/svg" width="32" height="32" viewBox="0 0 32 32">
<title>like-love-streamline</title>
<path d="M23.938 2.188c-3 0-6.375 1.688-7.938 5.5-1.563-3.813-4.938-5.5-7.938-5.5-3.875 0-8.063 2.813-8.063 9 0 4.563 2.625 9.375 7.875 14.188 3.875 3.563 7.625 5.75 7.813 5.875 0.063 0.063 0.188 0.063 0.313 0.063s0.25 0 0.313-0.063c0.188-0.125 3.938-2.313 7.813-5.875 5.25-4.813 7.875-9.625 7.875-14.188 0-6.188-4.188-9-8.063-9zM16 29.875c-2.188-1.375-14.688-9.438-14.688-18.688 0-5.25 3.5-7.688 6.75-7.688 3 0 6.375 2.063 7.313 6.625 0 0.313 0.313 0.563 0.625 0.563s0.625-0.25 0.625-0.563c0.938-4.563 4.313-6.625 7.313-6.625 3.25 0 6.75 2.438 6.75 7.688 0 9.25-12.5 17.313-14.688 18.688z"></path>
</svg>
