<!-- Generated by IcoMoon.io -->
<svg version="1.1" xmlns="http://www.w3.org/2000/svg" width="32" height="32" viewBox="0 0 32 32">
<title>house-2</title>
<path d="M27.375 18c-0.375 0-0.688 0.313-0.688 0.688v12h-6.625v-9.375h-8v9.375h-6.688v-12.688c0-0.375-0.313-0.688-0.688-0.688s-0.625 0.313-0.625 0.688v14h9.313v-9.313h5.313v9.313h9.375v-13.313c0-0.375-0.313-0.688-0.688-0.688zM31.875 16.875l-15.375-15.375c-0.25-0.25-0.688-0.25-0.938 0l-15.313 15.375c-0.25 0.25-0.25 0.688 0 0.938s0.688 0.25 0.938 0l14.875-14.875 14.813 14.875c0.188 0.125 0.313 0.188 0.5 0.188s0.313-0.063 0.5-0.188c0.25-0.25 0.25-0.688 0-0.938zM21.375 4h4v4c0 0.375 0.313 0.688 0.688 0.688s0.625-0.313 0.625-0.688v-5.313h-5.313c-0.375 0-0.688 0.25-0.688 0.625s0.313 0.688 0.688 0.688z"></path>
</svg>
