<!-- Generated by IcoMoon.io -->
<svg version="1.1" xmlns="http://www.w3.org/2000/svg" width="32" height="32" viewBox="0 0 32 32">
<title>hourglass-1</title>
<path d="M27.313 30.688h-2v-6c0-3.938-2.438-7.313-5.875-8.688 3.438-1.375 5.875-4.75 5.875-8.688v-6h2c0.375 0 0.688-0.25 0.688-0.625s-0.313-0.688-0.688-0.688h-22.625c-0.375 0-0.688 0.313-0.688 0.688s0.313 0.625 0.688 0.625h2v6c0 3.938 2.438 7.313 5.875 8.688-3.438 1.375-5.875 4.75-5.875 8.688v6h-2c-0.375 0-0.688 0.25-0.688 0.625s0.313 0.688 0.688 0.688h22.625c0.375 0 0.688-0.313 0.688-0.688s-0.313-0.625-0.688-0.625zM8 1.313h16v6c0 1.75-0.563 3.375-1.5 4.688h-13c-0.938-1.313-1.5-2.938-1.5-4.688zM10.75 13.313h10.5c-1.375 1.25-3.25 2-5.25 2s-3.875-0.75-5.25-2zM16 16.688c4.438 0 8 3.563 8 8v0.625h-3.75l-3.75-3.813c-0.313-0.25-0.688-0.25-1 0l-3.75 3.813h-3.75v-0.625c0-4.438 3.563-8 8-8zM8 30.688v-4h4c0.188 0 0.375-0.063 0.5-0.188l3.5-3.563 3.5 3.563c0.125 0.125 0.313 0.188 0.5 0.188h4v4z"></path>
</svg>
