<!-- Generated by IcoMoon.io -->
<svg version="1.1" xmlns="http://www.w3.org/2000/svg" width="32" height="32" viewBox="0 0 32 32">
<title>id-1</title>
<path d="M31.313 4h-30.625c-0.375 0-0.688 0.313-0.688 0.688v21.313c0 0.375 0.313 0.688 0.688 0.688h5.313c0.375 0 0.688-0.313 0.688-0.688v-1c0-0.938 0.75-1.688 1.625-1.688 0.938 0 1.688 0.75 1.688 1.688v1c0 0.375 0.313 0.688 0.688 0.688h10.625c0.375 0 0.688-0.313 0.688-0.688v-1c0-0.938 0.75-1.688 1.688-1.688 0.875 0 1.625 0.75 1.625 1.688v1c0 0.375 0.313 0.688 0.688 0.688h5.313c0.375 0 0.688-0.313 0.688-0.688v-21.313c0-0.375-0.313-0.688-0.688-0.688zM30.688 25.313h-4v-0.313c0-1.625-1.375-3-3-3-1.688 0-3 1.375-3 3v0.313h-9.375v-0.313c0-1.625-1.313-3-3-3-1.625 0-3 1.375-3 3v0.313h-4v-20h29.375zM14.688 18c0-1.625-0.875-3.5-3-4.313 0.625-0.563 1-1.438 1-2.375 0-1.813-1.5-3.313-3.375-3.313-1.813 0-3.313 1.5-3.313 3.313 0 0.938 0.375 1.813 1 2.375-2.188 0.813-3 2.688-3 4.313v0.688h10.688zM9.313 9.313c1.125 0 2 0.938 2 2 0 1.125-0.875 2-2 2-1.063 0-2-0.875-2-2 0-1.063 0.938-2 2-2zM5.375 17.313c0.25-1.063 1-2.625 3.938-2.625 3 0 3.75 1.563 3.938 2.625zM17.313 17.313h10.688v1.375h-10.688zM17.313 14.688h10.688v1.313h-10.688zM17.313 12h10.688v1.313h-10.688zM17.313 9.313h5.375v1.375h-5.375z"></path>
</svg>
