<!-- Generated by IcoMoon.io -->
<svg version="1.1" xmlns="http://www.w3.org/2000/svg" width="32" height="32" viewBox="0 0 32 32">
<title>inbox-2</title>
<path d="M32 15.313c0-0.063 0-0.125-0.063-0.125 0-0.063 0-0.125 0-0.125 0-0.063 0-0.063 0-0.063l-4.688-8c-0.125-0.188-0.375-0.313-0.563-0.313h-21.375c-0.188 0-0.438 0.125-0.563 0.313l-4.688 8c0 0 0 0 0 0.063 0 0 0 0.063 0 0.125-0.063 0-0.063 0.063-0.063 0.125 0 0 0 0 0 0v9.375c0 0.375 0.313 0.625 0.688 0.625h30.625c0.375 0 0.688-0.25 0.688-0.625v-9.375c0 0 0 0 0 0zM5.688 8h20.625l3.875 6.688h-8.188c-0.188 0-0.375 0.063-0.5 0.188s-0.188 0.313-0.188 0.438v1.375c0 1.063-0.875 2-2 2h-6c-1.063 0-2-0.938-2-2v-1.375c0-0.375-0.25-0.625-0.625-0.625h-8.875zM30.688 24h-29.375v-8h8.688v0.688c0 1.813 1.5 3.313 3.313 3.313h6c1.875 0 3.375-1.5 3.375-3.313v-0.688h8z"></path>
</svg>
