<!-- Generated by IcoMoon.io -->
<svg version="1.1" xmlns="http://www.w3.org/2000/svg" width="32" height="32" viewBox="0 0 32 32">
<title>information</title>
<path d="M15.313 0c-8.438 0-15.313 6.875-15.313 15.313 0 8.5 6.875 15.375 15.313 15.375 8.5 0 15.375-6.875 15.375-15.375 0-8.438-6.875-15.313-15.375-15.313zM15.313 29.313c-7.688 0-14-6.25-14-14 0-7.688 6.313-14 14-14 7.75 0 14 6.313 14 14 0 7.75-6.25 14-14 14zM19.313 24h-3.313v-11.313c0-0.375-0.313-0.688-0.688-0.688h-2.625c-0.375 0-0.688 0.313-0.688 0.688s0.313 0.625 0.688 0.625h2v10.688h-3.375c-0.375 0-0.625 0.313-0.625 0.688s0.25 0.625 0.625 0.625h8c0.375 0 0.688-0.25 0.688-0.625s-0.313-0.688-0.688-0.688zM14 8c0.75 0 1.313-0.625 1.313-1.313 0-0.75-0.563-1.375-1.313-1.375s-1.313 0.625-1.313 1.375c0 0.688 0.563 1.313 1.313 1.313zM14 6.688v0z"></path>
</svg>
