<!-- Generated by IcoMoon.io -->
<svg version="1.1" xmlns="http://www.w3.org/2000/svg" width="32" height="32" viewBox="0 0 32 32">
<title>key-1</title>
<path d="M27.063 0l-12.938 12.938c-1.313-0.625-2.688-0.938-4.125-0.938-5.5 0-10 4.5-10 10s4.5 10 10 10c5.5 0 10-4.5 10-10 0-1.438-0.313-2.813-0.938-4.125l3.875-3.875h2.375v-2.375l0.313-0.313h2.375v-2.375l0.25-0.25h2.438v-2.438l1.313-1.313v-4.938zM30.688 4.375l-1.375 1.375v1.563h-1.563l-1.063 1.063v1.625h-1.625l-1.063 1.063v1.625h-1.625l-4.875 4.875 0.188 0.438c0.625 1.25 1 2.625 1 4 0 4.75-3.938 8.688-8.688 8.688s-8.688-3.938-8.688-8.688c0-4.75 3.938-8.688 8.688-8.688 1.375 0 2.75 0.375 4 1l0.438 0.188 13.188-13.188h3.063zM7.313 22c-1.438 0-2.625 1.188-2.625 2.688 0 1.438 1.188 2.625 2.625 2.625 1.5 0 2.688-1.188 2.688-2.625 0-1.5-1.188-2.688-2.688-2.688zM7.313 26c-0.688 0-1.313-0.625-1.313-1.313 0-0.75 0.625-1.375 1.313-1.375 0.75 0 1.375 0.625 1.375 1.375 0 0.688-0.625 1.313-1.375 1.313z"></path>
</svg>
