<!-- Generated by IcoMoon.io -->
<svg version="1.1" xmlns="http://www.w3.org/2000/svg" width="32" height="32" viewBox="0 0 32 32">
<title>fontello-23</title>
<path d="M0 0v32h32v-32zM30.563 30.563h-29.125v-29.125h29.125zM7.313 26.625c1.875 0 3.313-1.438 3.313-3.313 0-0.25 0-0.5-0.063-0.75l3.625-2.313c0.625 0.625 1.5 1.125 2.5 1.125 1.813 0 3.313-1.563 3.313-3.375 0-0.75-0.25-1.438-0.625-1.938l4.25-5.563c0.313 0.125 0.688 0.125 1.063 0.125 1.813 0 3.313-1.438 3.313-3.313 0-1.813-1.5-3.313-3.313-3.313s-3.313 1.5-3.313 3.313c0 1 0.438 1.938 1.125 2.563l-4.125 5.25c-0.5-0.25-1.125-0.5-1.688-0.5-1.875 0-3.313 1.563-3.313 3.375 0 0.375 0.063 0.75 0.125 1.063l-3.5 2.313c-0.563-0.875-1.563-1.375-2.688-1.375-1.813 0-3.313 1.5-3.313 3.313s1.5 3.313 3.313 3.313zM23.25 5.938c0.375-0.375 0.875-0.563 1.438-0.563 0.5 0 1 0.188 1.375 0.563s0.563 0.875 0.563 1.375c0 0.563-0.188 1.063-0.563 1.438s-0.875 0.625-1.375 0.625c-0.563 0-1.063-0.25-1.438-0.625s-0.625-0.875-0.625-1.438c0-0.5 0.25-1 0.625-1.375zM15.25 16.563c0.375-0.375 0.875-0.563 1.438-0.563 0.5 0 1 0.188 1.375 0.563s0.563 0.938 0.563 1.438c0 0.5-0.188 1.063-0.563 1.438-0.375 0.313-0.875 0.563-1.375 0.563-0.563 0-1.063-0.25-1.438-0.563-0.375-0.375-0.625-0.938-0.625-1.438 0-0.563 0.25-1.063 0.625-1.438zM5.938 21.938c0.375-0.375 0.875-0.563 1.375-0.563 0.563 0 1.063 0.188 1.438 0.563s0.625 0.875 0.625 1.375c0 0.563-0.25 1.063-0.625 1.438s-0.875 0.625-1.438 0.625c-0.5 0-1-0.25-1.375-0.625s-0.563-0.875-0.563-1.438c0-0.5 0.188-1 0.563-1.375z"></path>
</svg>
