<!-- Generated by IcoMoon.io -->
<svg version="1.1" xmlns="http://www.w3.org/2000/svg" width="32" height="32" viewBox="0 0 32 32">
<title>lock-locker-streamline</title>
<path d="M15.313 21.125v3.563c0 0.375 0.313 0.625 0.688 0.625s0.688-0.25 0.688-0.625v-3.563c0.375-0.188 0.625-0.625 0.625-1.125 0-0.75-0.563-1.313-1.313-1.313s-1.313 0.563-1.313 1.313c0 0.5 0.25 0.938 0.625 1.125zM24 12v-4c0-4.438-3.563-8-8-8s-8 3.563-8 8v4h-4v20h24v-20zM9.313 8c0-3.688 3-6.688 6.688-6.688s6.688 3 6.688 6.688v4h-13.375zM26.688 30.688h-21.375v-17.375h21.375z"></path>
</svg>
