<!-- Generated by IcoMoon.io -->
<svg version="1.1" xmlns="http://www.w3.org/2000/svg" width="32" height="32" viewBox="0 0 32 32">
<title>mail-box-3</title>
<path d="M27.313 6.688h-20.625v-2.688h3.313c0.375 0 0.688-0.313 0.688-0.688v-2.625c0-0.375-0.313-0.688-0.688-0.688h-4c-0.375 0-0.688 0.313-0.688 0.688v6h-0.625c-2.625 0-4.688 2.063-4.688 4.625v12c0 0.375 0.313 0.688 0.688 0.688h16.625v7.313c0 0.375 0.313 0.688 0.688 0.688s0.688-0.313 0.688-0.688v-7.313h12.625c0.375 0 0.688-0.313 0.688-0.688v-12c0-2.563-2.063-4.625-4.688-4.625zM6.688 1.313h2.625v1.375h-2.625zM1.313 11.313c0-1.813 1.5-3.313 3.375-3.313 1.813 0 3.313 1.5 3.313 3.313v11.375h-6.688zM30.688 22.688h-21.375v-11.375c0-1.313-0.5-2.438-1.375-3.313h19.375c1.875 0 3.375 1.5 3.375 3.313zM6 20h-2.688c-0.375 0-0.625 0.313-0.625 0.688s0.25 0.625 0.625 0.625h2.688c0.375 0 0.688-0.25 0.688-0.625s-0.313-0.688-0.688-0.688z"></path>
</svg>
