<!-- Generated by IcoMoon.io -->
<svg version="1.1" xmlns="http://www.w3.org/2000/svg" width="32" height="32" viewBox="0 0 32 32">
<title>male</title>
<path d="M15.313 10.688c2.938 0 5.375-2.438 5.375-5.375s-2.438-5.313-5.375-5.313c-2.938 0-5.313 2.375-5.313 5.313s2.375 5.375 5.313 5.375zM15.313 1.313c2.25 0 4 1.813 4 4 0 2.25-1.75 4-4 4-2.188 0-4-1.75-4-4 0-2.188 1.813-4 4-4zM7.313 12v0.688c0 6.438 2.813 9.188 4.688 10.375v8.938h6.688v-8.938c1.875-1.188 4.625-3.938 4.625-10.375v-0.688zM17.688 22.063l-0.375 0.188v8.438h-4v-8.438l-0.313-0.188c-2.688-1.438-4.188-4.5-4.313-8.75h13.313c-0.125 4.25-1.688 7.313-4.313 8.75z"></path>
</svg>
