<!-- Generated by IcoMoon.io -->
<svg version="1.1" xmlns="http://www.w3.org/2000/svg" width="32" height="32" viewBox="0 0 32 32">
<title>bubble-comment-streamline-talk</title>
<path d="M30 2.688h-28c-1.125 0-2 0.875-2 2v17.313c0 1.125 0.875 2 2 2h2v6.25l6.25-6.25h19.75c1.125 0 2-0.875 2-2v-17.313c0-1.125-0.875-2-2-2zM30.688 22c0 0.375-0.313 0.688-0.688 0.688h-20.25l-4.438 4.375v-4.375h-3.313c-0.375 0-0.688-0.313-0.688-0.688v-17.313c0-0.375 0.313-0.688 0.688-0.688h28c0.375 0 0.688 0.313 0.688 0.688zM12 13.313c0 0.75-0.625 1.375-1.313 1.375-0.75 0-1.375-0.625-1.375-1.375 0-0.688 0.625-1.313 1.375-1.313 0.688 0 1.313 0.625 1.313 1.313zM22.688 13.313c0 0.75-0.625 1.375-1.375 1.375-0.688 0-1.313-0.625-1.313-1.375 0-0.688 0.625-1.313 1.313-1.313 0.75 0 1.375 0.625 1.375 1.313zM17.313 13.313c0 0.75-0.563 1.375-1.313 1.375s-1.313-0.625-1.313-1.375c0-0.688 0.563-1.313 1.313-1.313s1.313 0.625 1.313 1.313z"></path>
</svg>
