<!-- Generated by IcoMoon.io -->
<svg version="1.1" xmlns="http://www.w3.org/2000/svg" width="32" height="32" viewBox="0 0 32 32">
<title>megaphone-1</title>
<path d="M29.313 12v-7.313c0-0.25-0.125-0.438-0.313-0.563s-0.375-0.188-0.625-0.063l-1.25 0.563c-5.25 2.438-10.188 4.688-21.125 4.688h-1.313c-2.563 0-4.688 2.125-4.688 4.688v2.688c0 2.563 2.125 4.625 4.688 4.625h1.313c1.188 0 2.313 0.063 3.313 0.125 0.063 3.875 2.25 7.438 5.75 9.188 0.063 0 0.188 0.063 0.25 0.063 0.25 0 0.5-0.125 0.625-0.375 0.188-0.313 0-0.75-0.313-0.938-3-1.5-4.938-4.5-4.938-7.875 7.75 0.563 12 2.5 16.5 4.563l1.188 0.563c0.125 0 0.188 0.063 0.313 0.063s0.25-0.063 0.313-0.125 0.313-0.313 0.313-0.563v-7.313c1.5 0 2.688-1.188 2.688-2.688v-1.313c0-1.5-1.188-2.688-2.688-2.688zM4.688 20c-1.875 0-3.375-1.5-3.375-3.313v-2.688c0-1.813 1.5-3.313 3.375-3.313h1.313c1.188 0 2.25-0.063 3.313-0.125v9.5c-1.063 0-2.125-0.063-3.313-0.063zM28 24.938l-0.313-0.125c-4.563-2.063-8.938-4.125-17-4.625v-9.688c8.063-0.563 12.438-2.563 17-4.688l0.313-0.125zM30.688 16c0 0.75-0.625 1.313-1.375 1.313v-4c0.75 0 1.375 0.625 1.375 1.375z"></path>
</svg>
