<!-- Generated by IcoMoon.io -->
<svg version="1.1" xmlns="http://www.w3.org/2000/svg" width="32" height="32" viewBox="0 0 32 32">
<title>clip-1</title>
<path d="M29.063 5.688c-1.5-1.5-3.5-2.375-5.625-2.375-2.188 0-4.188 0.875-5.688 2.375l-16 16c-2.313 2.313-2.313 6.125 0 8.5 1.188 1.125 2.688 1.75 4.25 1.75s3.063-0.625 4.25-1.75l15.313-15.375c0.625-0.625 0.938-1.5 0.938-2.375s-0.313-1.688-0.938-2.375c-0.625-0.625-1.5-0.938-2.375-0.938s-1.75 0.313-2.375 0.938l-11.313 11.375c-0.25 0.25-0.25 0.688 0 0.938s0.688 0.25 0.938 0l11.375-11.313c0.75-0.813 2.063-0.813 2.813 0 0.375 0.375 0.563 0.875 0.563 1.375 0 0.563-0.188 1.063-0.563 1.438l-15.313 15.375c-1.813 1.813-4.813 1.813-6.625 0-1.813-1.875-1.813-4.813 0-6.625l16-16c1.25-1.25 2.938-1.938 4.75-1.938 1.75 0 3.438 0.688 4.688 1.938 2.625 2.625 2.625 6.813 0 9.438l-11.313 11.313c-0.25 0.25-0.25 0.688 0 0.938s0.688 0.25 0.938 0l11.313-11.313c3.125-3.125 3.125-8.188 0-11.313z"></path>
</svg>
