<!-- Generated by IcoMoon.io -->
<svg version="1.1" xmlns="http://www.w3.org/2000/svg" width="32" height="32" viewBox="0 0 32 32">
<title>contact-page-1</title>
<path d="M32 26.063c-0.063-1.25-0.813-2.5-2.375-3.688-4.563-3.688-6.188-2.063-8.063-0.125l-0.313 0.313c-0.563 0.563-1.938-0.188-2.688-0.688-1.25-0.75-2.75-2.063-4.563-3.875-5.5-5.5-4.875-6.938-4.563-7.25l0.313-0.313c1.938-1.875 3.563-3.5-0.063-8.063-1.25-1.563-2.5-2.313-3.75-2.375-1.813-0.063-3.125 1.375-4.375 2.625-0.188 0.25-0.375 0.438-0.563 0.625-1.313 1.313-1.313 4.188 0 7.75 1.438 3.875 4.375 8.063 8.125 11.875 3.813 3.75 8 6.688 11.875 8.125 1.813 0.688 3.375 1 4.75 1 1.313 0 2.375-0.313 3-1 0.188-0.188 0.375-0.375 0.625-0.563 1.25-1.188 2.688-2.563 2.625-4.375zM28.625 29.625c-0.25 0.25-0.438 0.438-0.625 0.625-1 1-3.563 0.875-6.625-0.25-3.688-1.438-7.813-4.25-11.5-7.875-3.625-3.688-6.438-7.813-7.875-11.5-1.125-3.063-1.25-5.625-0.25-6.625 0.188-0.188 0.375-0.375 0.625-0.625 1-1.063 2.188-2.313 3.438-2.313 0.063 0 0.063 0 0.125 0 0.875 0.063 1.875 0.688 2.875 2 3.063 3.75 2 4.813 0.188 6.563l-0.375 0.375c-1.375 1.438 0.063 4.188 4.625 8.75 1.813 1.875 3.438 3.188 4.688 4.063 1.875 1.188 3.25 1.375 4.063 0.5l0.375-0.313c1.75-1.813 2.813-2.875 6.563 0.188 1.313 1 1.938 2 2 2.875 0.063 1.375-1.188 2.563-2.313 3.563z"></path>
</svg>
