<!-- Generated by IcoMoon.io -->
<svg version="1.1" xmlns="http://www.w3.org/2000/svg" width="32" height="32" viewBox="0 0 32 32">
<title>photo-1</title>
<path d="M0 0v32h32v-32zM30.688 1.313v21.375h-0.938l-4.563-9.063c-0.438-1-1.438-1.625-2.563-1.625-1.063 0-2 0.563-2.5 1.438l-3.563 6.063c-1-1.25-3.25-3.5-5.875-3.5-3.313 0-5.75 5.063-6.438 6.688h-2.938v-21.375zM28.25 22.688h-22.563c1-2.063 2.938-5.375 5-5.375 2.938 0 5.375 3.688 5.438 3.75 0.125 0.188 0.313 0.25 0.563 0.25s0.438-0.125 0.563-0.313l4-6.875c0.313-0.5 0.813-0.813 1.375-0.813s1.125 0.375 1.375 0.875zM1.313 30.688v-6.688h29.375v6.688zM8.688 12h4c2.188 0 4-1.813 4-4s-1.813-4-4-4c-1.75 0-3.25 1.063-3.813 2.688-1.5-0.125-2.875 1.125-2.875 2.625s1.188 2.688 2.688 2.688zM8.688 8c0.125 0 0.313 0.063 0.438 0.125l0.813 0.25 0.125-0.813c0.188-1.313 1.313-2.25 2.625-2.25 1.438 0 2.625 1.188 2.625 2.688s-1.188 2.688-2.625 2.688h-4c-0.75 0-1.375-0.625-1.375-1.375 0-0.688 0.625-1.313 1.375-1.313z"></path>
</svg>
