<!-- Generated by IcoMoon.io -->
<svg version="1.1" xmlns="http://www.w3.org/2000/svg" width="32" height="32" viewBox="0 0 32 32">
<title>add-3</title>
<path d="M15.313 0c-8.438 0-15.313 6.875-15.313 15.313 0 4.063 1.563 7.938 4.5 10.813 2.875 2.938 6.688 4.563 10.813 4.563 0 0 0 0 0 0 8.438 0 15.313-6.875 15.375-15.313 0-8.438-6.875-15.375-15.375-15.375zM15.313 29.313v0c-7.75 0-14-6.313-14-14 0.063-7.688 6.313-14 14.063-14 7.688 0.063 14 6.313 13.938 14.063 0 7.688-6.25 13.938-14 13.938zM23.313 14.688h-7.313v-7.375c0-0.375-0.313-0.625-0.688-0.625s-0.625 0.25-0.625 0.625v7.375h-7.5c0 0 0 0 0 0-0.375 0-0.625 0.25-0.625 0.625s0.25 0.688 0.625 0.688h7.5v7.313c0 0.375 0.25 0.688 0.625 0.688s0.688-0.313 0.688-0.688v-7.313h7.313c0.375 0 0.688-0.313 0.688-0.625 0-0.375-0.313-0.688-0.688-0.688z"></path>
</svg>
