<?xml version="1.0" encoding="utf-8"?>
<!-- Generator: Adobe Illustrator 22.0.1, SVG Export Plug-In . SVG Version: 6.00 Build 0)  -->
<svg version="1.1" id="Layer_1" xmlns="http://www.w3.org/2000/svg" xmlns:xlink="http://www.w3.org/1999/xlink" x="0px" y="0px"
	 viewBox="0 0 1024 1024" style="enable-background:new 0 0 1024 1024;" xml:space="preserve">
<path d="M512,1002.6c270.5,0,490.7-220.1,490.7-490.7S782.5,21.3,512,21.3S21.3,241.4,21.3,511.9S241.4,1002.6,512,1002.6
	L512,1002.6z M960,511.9c0,247-201,448-448,448s-448-201-448-448s201-448,448-448S960,264.9,960,511.9z M512,703.9
	c-17.7,0-32,14.3-32,32c0,17.7,14.3,32,32,32s32-14.3,32-32C544,718.2,529.7,703.9,512,703.9z M512,661.2c11.8,0,21.3-9.6,21.3-21.3
	v-17.6c0-25.5,15.1-48.4,38.4-58.7c54.4-23.7,89.6-77.5,89.6-136.9c0-39.9-15.5-77.3-43.8-105.6c-28.2-28.2-65.7-43.8-105.6-43.8
	s-77.4,15.6-105.6,43.7c-28.3,28.2-43.8,65.7-43.8,105.6c0,11.8,9.6,21.3,21.3,21.3s21.3-9.6,21.3-21.3c0-28.5,11.1-55.3,31.2-75.4
	s46.9-31.2,75.4-31.2c28.4,0.1,55.2,11.1,75.4,31.3s31.3,46.9,31.3,75.4c0,42.4-25.1,80.8-64,97.8c-38.9,17-64,55.4-64,97.8v17.6
	C490.7,651.6,500.2,661.2,512,661.2L512,661.2z"/>
</svg>
