<!-- Generated by IcoMoon.io -->
<svg version="1.1" xmlns="http://www.w3.org/2000/svg" width="32" height="32" viewBox="0 0 32 32">
<title>search</title>
<path d="M31.75 30.375l-11.563-11.563c1.75-2.125 2.688-4.688 2.688-7.375 0-6.313-5.125-11.438-11.5-11.438-3 0-5.875 1.188-8.063 3.313-2.125 2.188-3.313 5.063-3.313 8.063 0 6.375 5.125 11.5 11.375 11.5 2.688 0 5.313-1 7.438-2.75l11.563 11.625c0.188 0.125 0.438 0.25 0.625 0.25 0.313 0 0.563-0.125 0.75-0.25 0.375-0.375 0.375-1 0-1.375zM18.125 18.125c-1.75 1.813-4.188 2.813-6.688 2.813-2.563 0-4.938-1-6.75-2.813-1.813-1.75-2.813-4.188-2.813-6.688 0-2.563 1-4.938 2.813-6.75s4.188-2.813 6.75-2.813c2.5 0 4.938 1 6.688 2.813 1.813 1.813 2.813 4.188 2.813 6.75 0 2.5-1 4.938-2.813 6.688z"></path>
</svg>
