<!-- Generated by IcoMoon.io -->
<svg version="1.1" xmlns="http://www.w3.org/2000/svg" width="32" height="32" viewBox="0 0 32 32">
<title>settings-streamline-1</title>
<path d="M30 12.688h-2.5c-0.25-0.875-0.563-1.688-1-2.5l1.75-1.75c0.375-0.375 0.563-0.875 0.563-1.375 0-0.563-0.188-1.063-0.563-1.438l-1.875-1.875c-0.75-0.75-2.063-0.75-2.813 0l-1.75 1.75c-0.813-0.438-1.625-0.75-2.5-1v-2.5c0-1.125-0.875-2-2-2h-2.625c-1.125 0-2 0.875-2 2v2.5c-0.875 0.25-1.688 0.563-2.5 1l-1.75-1.75c-0.75-0.75-2.063-0.75-2.813 0l-1.875 1.875c-0.813 0.813-0.813 2.063 0 2.813l1.75 1.75c-0.438 0.813-0.75 1.625-1 2.5h-2.5c-0.563 0-1.063 0.188-1.438 0.563s-0.563 0.875-0.563 1.438v2.625c0 1.125 0.875 2 2 2h2.5c0.25 0.875 0.563 1.688 1 2.5l-1.75 1.75c-0.375 0.375-0.625 0.875-0.625 1.375 0 0.563 0.25 1.063 0.625 1.438l1.875 1.875c0.75 0.75 2.063 0.75 2.813 0l1.75-1.75c0.813 0.438 1.625 0.75 2.5 1v2.5c0 1.125 0.875 2 2 2h2.625c1.125 0 2-0.875 2-2v-2.5c0.875-0.25 1.688-0.563 2.5-1l1.75 1.75c0.75 0.75 2.063 0.75 2.813 0l1.875-1.875c0.813-0.813 0.813-2.063 0-2.813l-1.75-1.75c0.438-0.813 0.75-1.625 1-2.5h2.5c0.563 0 1.063-0.188 1.438-0.563s0.563-0.875 0.563-1.438v-2.625c0-1.125-0.875-2-2-2zM30.688 17.313c0 0.188-0.063 0.375-0.188 0.5s-0.313 0.188-0.5 0.188h-3c-0.313 0-0.563 0.188-0.625 0.5-0.25 1.063-0.688 2.125-1.25 3.063-0.188 0.25-0.125 0.563 0.063 0.813l2.125 2.125c0.25 0.25 0.25 0.688 0 0.938l-1.875 1.875c-0.25 0.25-0.688 0.25-0.938 0l-2.125-2.125c-0.25-0.188-0.563-0.25-0.813-0.063-0.938 0.563-2 1-3.063 1.25-0.313 0.063-0.5 0.313-0.5 0.625v3c0 0.375-0.313 0.688-0.688 0.688h-2.625c-0.375 0-0.688-0.313-0.688-0.688v-3c0-0.313-0.188-0.563-0.5-0.625-1.063-0.25-2.125-0.688-3.063-1.25-0.063-0.125-0.188-0.125-0.313-0.125-0.188 0-0.375 0.063-0.5 0.188l-2.125 2.125c-0.25 0.25-0.688 0.25-0.938 0l-1.875-1.875c-0.125-0.125-0.188-0.313-0.188-0.5 0-0.125 0.063-0.313 0.188-0.438l2.125-2.125c0.188-0.25 0.25-0.563 0.063-0.813-0.563-0.938-1-2-1.25-3.063-0.063-0.313-0.313-0.5-0.625-0.5h-3c-0.375 0-0.688-0.313-0.688-0.688v-2.625c0-0.188 0.063-0.375 0.188-0.5s0.313-0.188 0.5-0.188h3c0.313 0 0.563-0.188 0.625-0.5 0.25-1.063 0.688-2.125 1.25-3.063 0.188-0.25 0.125-0.563-0.063-0.813l-2.125-2.125c-0.25-0.25-0.25-0.688 0-0.938l1.875-1.875c0.25-0.25 0.688-0.25 0.938 0l2.125 2.125c0.25 0.188 0.563 0.25 0.813 0.063 0.938-0.563 2-1 3.063-1.25 0.313-0.063 0.5-0.313 0.5-0.625v-3c0-0.375 0.313-0.688 0.688-0.688h2.625c0.375 0 0.688 0.313 0.688 0.688v3c0 0.313 0.188 0.563 0.5 0.625 1.063 0.25 2.125 0.688 3.063 1.25 0.25 0.188 0.563 0.125 0.813-0.063l2.125-2.125c0.25-0.25 0.688-0.25 0.938 0l1.875 1.875c0.125 0.125 0.188 0.313 0.188 0.5 0 0.125-0.063 0.313-0.188 0.438l-2.125 2.125c-0.188 0.25-0.25 0.563-0.063 0.813 0.563 0.938 1 2 1.25 3.063 0.063 0.313 0.313 0.5 0.625 0.5h3c0.375 0 0.688 0.313 0.688 0.688zM16 9.313c-3.688 0-6.688 3-6.688 6.688s3 6.688 6.688 6.688c3.688 0 6.688-3 6.688-6.688s-3-6.688-6.688-6.688zM16 21.313c-2.938 0-5.313-2.375-5.313-5.313s2.375-5.313 5.313-5.313c2.938 0 5.313 2.375 5.313 5.313s-2.375 5.313-5.313 5.313z"></path>
</svg>
