<!-- Generated by IcoMoon.io -->
<svg version="1.1" xmlns="http://www.w3.org/2000/svg" width="32" height="32" viewBox="0 0 32 32">
<title>cart-2</title>
<path d="M31.313 5.313h-3.375c-0.688 0-1.25 0.5-1.313 1.188l-0.5 3.563c0 0.375-0.313 0.625-0.625 0.625h-22.813c-0.875 0-1.688 0.375-2.188 1.063s-0.625 1.563-0.375 2.375l2.063 6.688c0.375 1.125 1.375 1.875 2.563 1.875h19.25c0.375 0 0.688 0.25 0.688 0.625s-0.313 0.688-0.688 0.688h-18.688c-0.375 0-0.625 0.313-0.625 0.688s0.25 0.625 0.625 0.625h18.688c1.125 0 2-0.875 2-2 0-1.063-0.875-2-2-2h-19.25c-0.563 0-1.125-0.375-1.25-0.938l-2.125-6.625c-0.125-0.438-0.063-0.875 0.188-1.188 0.25-0.375 0.688-0.563 1.125-0.563h22.813c1 0 1.875-0.75 2-1.75l0.438-3.563h3.375c0.375 0 0.688-0.313 0.688-0.688s-0.313-0.688-0.688-0.688zM25.313 13.938l-0.625 6c-0.063 0.375 0.188 0.688 0.563 0.75 0.063 0 0.063 0 0.063 0 0.375 0 0.625-0.25 0.688-0.625l0.688-6c0-0.375-0.25-0.688-0.625-0.75-0.375 0-0.688 0.25-0.75 0.625zM8 26.688c-1.5 0-2.688 1.188-2.688 2.625 0 1.5 1.188 2.688 2.688 2.688s2.688-1.188 2.688-2.688c0-1.438-1.188-2.625-2.688-2.625zM8 30.688c-0.75 0-1.313-0.625-1.313-1.375 0-0.688 0.563-1.313 1.313-1.313s1.313 0.625 1.313 1.313c0 0.75-0.563 1.375-1.313 1.375zM22.688 26.688c-1.5 0-2.688 1.188-2.688 2.625 0 1.5 1.188 2.688 2.688 2.688 1.438 0 2.625-1.188 2.625-2.688 0-1.438-1.188-2.625-2.625-2.625zM22.688 30.688c-0.75 0-1.375-0.625-1.375-1.375 0-0.688 0.625-1.313 1.375-1.313 0.688 0 1.313 0.625 1.313 1.313 0 0.75-0.625 1.375-1.313 1.375z"></path>
</svg>
