<!-- Generated by IcoMoon.io -->
<svg version="1.1" xmlns="http://www.w3.org/2000/svg" width="32" height="32" viewBox="0 0 32 32">
<title>scale-reduce-3</title>
<path d="M31.813 0.188c-0.25-0.25-0.688-0.25-0.938 0l-12.188 12.188v-7.688c0-0.375-0.313-0.688-0.688-0.688s-0.688 0.313-0.688 0.688v9.25c0 0.063 0 0.188 0.063 0.313 0.125 0.25 0.313 0.438 0.625 0.438h9.313c0.375 0 0.688-0.313 0.688-0.688s-0.313-0.688-0.688-0.688h-7.75l12.25-12.188c0.25-0.25 0.25-0.688 0-0.938zM14.625 17.75c-0.063-0.188-0.188-0.313-0.375-0.375-0.063 0-0.188-0.063-0.25-0.063h-9.375c-0.313 0-0.625 0.313-0.625 0.688s0.313 0.688 0.625 0.688h7.75l-12.188 12.188c-0.25 0.25-0.25 0.688 0 0.938 0.125 0.125 0.313 0.188 0.5 0.188 0.125 0 0.313-0.063 0.438-0.188l12.188-12.188v7.688c0 0.375 0.313 0.688 0.688 0.688s0.688-0.313 0.688-0.688v-9.313c0-0.063-0.063-0.188-0.063-0.25z"></path>
</svg>
