<!-- Generated by IcoMoon.io -->
<svg version="1.1" xmlns="http://www.w3.org/2000/svg" width="32" height="32" viewBox="0 0 32 32">
<title>smiley-happy-4</title>
<path d="M16 0c-8.813 0-16 7.188-16 16s7.188 16 16 16c8.813 0 16-7.188 16-16s-7.188-16-16-16zM16 30.688c-8.063 0-14.688-6.625-14.688-14.688s6.625-14.688 14.688-14.688c8.063 0 14.688 6.625 14.688 14.688s-6.625 14.688-14.688 14.688zM26 16.688c-0.375 0-0.688 0.25-0.688 0.625 0 5.188-4.188 9.375-9.313 9.375s-9.313-4.188-9.313-9.375c0-0.375-0.313-0.625-0.688-0.625s-0.688 0.25-0.688 0.625c0 5.875 4.813 10.688 10.688 10.688s10.688-4.813 10.688-10.688c0-0.375-0.313-0.625-0.688-0.625zM7.313 14c0.375 0 0.688-0.313 0.688-0.688 0-1.063 0.875-2 2-2s2 0.938 2 2c0 0.375 0.313 0.688 0.688 0.688s0.625-0.313 0.625-0.688c0-1.813-1.5-3.313-3.313-3.313s-3.313 1.5-3.313 3.313c0 0.375 0.25 0.688 0.625 0.688zM19.313 14c0.375 0 0.688-0.313 0.688-0.688 0-1.063 0.875-2 2-2s2 0.938 2 2c0 0.375 0.313 0.688 0.688 0.688s0.625-0.313 0.625-0.688c0-1.813-1.5-3.313-3.313-3.313s-3.313 1.5-3.313 3.313c0 0.375 0.25 0.688 0.625 0.688z"></path>
</svg>
