<!-- Generated by IcoMoon.io -->
<svg version="1.1" xmlns="http://www.w3.org/2000/svg" width="32" height="32" viewBox="0 0 32 32">
<title>clipboard-1</title>
<path d="M27.313 2.688h-2.625c-0.375 0-0.688 0.25-0.688 0.625s0.313 0.688 0.688 0.688h2v26.688h-22.688v-26.688h2c0.375 0 0.688-0.313 0.688-0.688s-0.313-0.625-0.688-0.625h-2.688c-0.375 0-0.625 0.25-0.625 0.625v28c0 0.375 0.25 0.688 0.625 0.688h24c0.375 0 0.688-0.313 0.688-0.688v-28c0-0.375-0.313-0.625-0.688-0.625zM8.688 6.688h13.313c0.375 0 0.688-0.313 0.688-0.688v-2.688c0-0.375-0.313-0.625-0.688-0.625h-3.375c-0.313-1.563-1.688-2.688-3.313-2.688-1.563 0-2.938 1.125-3.25 2.688h-3.375c-0.375 0-0.688 0.25-0.688 0.625v2.688c0 0.375 0.313 0.688 0.688 0.688zM9.313 4h3.375c0.375 0 0.625-0.313 0.625-0.688 0-1.063 0.938-2 2-2 1.125 0 2 0.938 2 2 0 0.375 0.313 0.688 0.688 0.688h3.313v1.313h-12zM6.688 6c0-0.375-0.313-0.688-0.688-0.688s-0.688 0.313-0.688 0.688v22.688c0 0.375 0.313 0.625 0.688 0.625h18.688c0.375 0 0.625-0.25 0.625-0.625v-22.688c0-0.375-0.25-0.688-0.625-0.688s-0.688 0.313-0.688 0.688v22h-17.313zM12.688 12h8c0.375 0 0.625-0.313 0.625-0.688s-0.25-0.625-0.625-0.625h-8c-0.375 0-0.688 0.25-0.688 0.625s0.313 0.688 0.688 0.688zM12.688 16h8c0.375 0 0.625-0.313 0.625-0.688s-0.25-0.625-0.625-0.625h-8c-0.375 0-0.688 0.25-0.688 0.625s0.313 0.688 0.688 0.688zM12.688 20h8c0.375 0 0.625-0.313 0.625-0.688s-0.25-0.625-0.625-0.625h-8c-0.375 0-0.688 0.25-0.688 0.625s0.313 0.688 0.688 0.688zM12.688 24h8c0.375 0 0.625-0.313 0.625-0.688s-0.25-0.625-0.625-0.625h-8c-0.375 0-0.688 0.25-0.688 0.625s0.313 0.688 0.688 0.688zM9.313 12h0.688c0.375 0 0.688-0.313 0.688-0.688s-0.313-0.625-0.688-0.625h-0.688c-0.375 0-0.625 0.25-0.625 0.625s0.25 0.688 0.625 0.688zM9.313 16h0.688c0.375 0 0.688-0.313 0.688-0.688s-0.313-0.625-0.688-0.625h-0.688c-0.375 0-0.625 0.25-0.625 0.625s0.25 0.688 0.625 0.688zM9.313 20h0.688c0.375 0 0.688-0.313 0.688-0.688s-0.313-0.625-0.688-0.625h-0.688c-0.375 0-0.625 0.25-0.625 0.625s0.25 0.688 0.625 0.688zM9.313 24h0.688c0.375 0 0.688-0.313 0.688-0.688s-0.313-0.625-0.688-0.625h-0.688c-0.375 0-0.625 0.25-0.625 0.625s0.25 0.688 0.625 0.688z"></path>
</svg>
