<!-- Generated by IcoMoon.io -->
<svg version="1.1" xmlns="http://www.w3.org/2000/svg" width="32" height="32" viewBox="0 0 32 32">
<title>star-1</title>
<path d="M31.938 11.813c-0.063-0.313-0.313-0.5-0.625-0.5h-10.813l-3.875-10.875c-0.063-0.25-0.313-0.438-0.625-0.438s-0.563 0.188-0.625 0.438l-3.875 10.875h-10.813c-0.313 0-0.563 0.188-0.625 0.5-0.125 0.25 0 0.563 0.188 0.688l9 7.063-3.875 11.563c-0.125 0.25 0 0.563 0.25 0.75 0.188 0.188 0.563 0.188 0.75 0l9.625-7.063 9.625 7.063c0.125 0.063 0.25 0.125 0.375 0.125s0.25-0.063 0.375-0.125c0.25-0.188 0.375-0.5 0.25-0.75l-3.875-11.563 9-7.063c0.25-0.125 0.313-0.438 0.188-0.688zM21.563 18.813c-0.188 0.188-0.313 0.438-0.188 0.75l3.313 10-8.313-6.125c-0.125-0.063-0.25-0.125-0.375-0.125s-0.25 0.063-0.375 0.125l-8.313 6.125 3.313-10c0.125-0.313 0-0.563-0.188-0.75l-7.813-6.125h9.375c0.313 0 0.563-0.188 0.625-0.438l3.375-9.563 3.375 9.563c0.063 0.25 0.313 0.438 0.625 0.438h9.375z"></path>
</svg>
