<!-- Generated by IcoMoon.io -->
<svg version="1.1" xmlns="http://www.w3.org/2000/svg" width="32" height="32" viewBox="0 0 32 32">
<title>transfer-6</title>
<path d="M31.938 20.938c0.063-0.188 0.063-0.375 0-0.5 0-0.125-0.063-0.188-0.125-0.25l-5.313-5.313c-0.313-0.25-0.688-0.25-1 0-0.25 0.25-0.25 0.688 0 0.938l4.25 4.188h-17.063c-0.375 0-0.688 0.313-0.688 0.688s0.313 0.625 0.688 0.625h17.063l-4.25 4.188c-0.25 0.313-0.25 0.688 0 1 0.188 0.125 0.313 0.188 0.5 0.188s0.313-0.063 0.5-0.188l5.313-5.375c0.063-0.063 0.125-0.125 0.125-0.188zM2.25 14.688h17.063c0.375 0 0.688-0.313 0.688-0.688s-0.313-0.688-0.688-0.688h-17.063l4.25-4.188c0.25-0.25 0.25-0.688 0-0.938-0.313-0.25-0.688-0.25-1 0l-5.313 5.313c-0.063 0.063-0.125 0.188-0.125 0.25-0.063 0.188-0.063 0.313 0 0.5 0 0.063 0.063 0.188 0.125 0.25l5.313 5.313c0.188 0.125 0.313 0.188 0.5 0.188s0.313-0.063 0.5-0.188c0.25-0.25 0.25-0.688 0-0.938z"></path>
</svg>
