<!-- Generated by IcoMoon.io -->
<svg version="1.1" xmlns="http://www.w3.org/2000/svg" width="32" height="32" viewBox="0 0 32 32">
<title>fontello</title>
<path d="M32 23.188c0-0.25-0.063-0.813-0.563-1.563-0.563-0.813-1.563-1.5-2.813-2.063-0.313-0.125-0.688-0.313-1.063-0.563-0.813-0.5-1.938-1.063-3.25-1.5 0.313-0.625 0.625-1.313 0.875-2.063 0.438-0.938 0.438-1.75 0.375-2.625 0-0.063 0-0.188 0-0.313 0-0.188 0.063-0.438 0.063-0.688 0-0.75 0.063-1.563-0.125-2.25-0.375-1.313-1.125-2.313-2.125-2.938-0.438-0.313-1-0.5-1.563-0.625-0.438-0.125-1-0.125-1.563-0.125s-1.063 0-1.563 0.125c-0.563 0.125-1.063 0.313-1.563 0.625-1 0.625-1.75 1.625-2.063 3-0.188 0.625-0.188 1.5-0.125 2.188 0 0.25 0 0.5 0 0.688 0 0.125 0 0.188 0 0.313 0 0.875 0 1.688 0.375 2.625 0.25 0.688 0.5 1.375 0.875 2.063 0 0 0 0 0 0-1.313 0.438-2.375 1-3.188 1.5-0.188 0.125-0.313 0.188-0.438 0.25 0.125-0.313 0.25-0.688 0.375-1 0.313-0.75 0.313-1.375 0.313-2 0-0.063 0-0.188 0-0.313 0-0.063 0-0.25 0-0.438 0-0.563 0.063-1.188-0.063-1.75-0.188-0.5-0.375-1-0.688-1.375-0.25-0.438-0.625-0.75-1.063-1-0.313-0.188-0.75-0.375-1.188-0.438-0.375-0.063-0.75-0.125-1.25-0.125-0.438 0-0.813 0.063-1.25 0.125s-0.813 0.25-1.188 0.438c-0.438 0.25-0.75 0.625-1.063 1s-0.5 0.875-0.625 1.438c-0.188 0.5-0.125 1.125-0.125 1.688 0 0.188 0 0.375 0 0.438 0 0.125 0 0.25 0 0.313 0 0.625 0 1.313 0.313 2 0.125 0.438 0.313 0.813 0.5 1.188-0.813 0.313-1.438 0.688-2 1-0.313 0.125-0.563 0.25-0.75 0.375-2.313 1.063-2.688 2.375-2.75 2.75l-0.063 0.125v2.938h32zM8.313 23.188v2.188h-6.938v-1.625c0 0 0.125-0.875 2-1.75 0.875-0.375 2.25-1.438 4.25-1.75-0.5-0.563-0.875-1.438-1.313-2.438-0.25-0.625-0.188-1.125-0.188-1.875 0-0.5-0.125-1.375 0-1.813 0.438-1.563 1.563-2 2.875-2s2.438 0.438 2.875 2c0.188 0.438 0 1.313 0 1.813 0 0.75 0.063 1.25-0.188 1.875-0.313 0.813-0.625 1.563-1.063 2.063-2.125 1.375-2.313 2.875-2.313 3.313zM30.625 25.375h-20.75v-2.188c0 0 0.063-1.25 2.625-2.438 1.25-0.5 3.063-1.938 5.813-2.438-0.688-0.75-1.25-1.938-1.75-3.313-0.313-0.875-0.313-1.5-0.313-2.5 0-0.75-0.125-1.938 0.063-2.563 0.625-2.188 2.125-2.75 3.938-2.75s3.313 0.563 3.938 2.75c0.188 0.625 0.063 1.813 0.063 2.563 0 1 0.063 1.625-0.313 2.438-0.5 1.438-1 2.625-1.75 3.375 2.75 0.5 4.625 1.938 5.875 2.438 2.563 1.188 2.563 2.438 2.563 2.438z"></path>
</svg>
