<!-- Generated by IcoMoon.io -->
<svg version="1.1" xmlns="http://www.w3.org/2000/svg" width="32" height="32" viewBox="0 0 32 32">
<title>man-people-streamline-user</title>
<path d="M28.813 23.063l-8.125-2.25v-2.375c2.375-1.813 4-4.875 4-8.438 0-5.5-3.875-10-8.688-10-4.75 0-8.625 4.5-8.625 10 0 3.5 1.563 6.625 3.938 8.375v2.438l-8.188 2.25c-1.875 0.688-3.125 2.438-3.125 4.438v4.5h32v-4.5c0-2-1.25-3.75-3.188-4.438zM16 1.313c3.188 0 5.875 2.438 6.875 5.813-0.25 0.25-0.625 0.375-1.125 0.375-1.313-0.063-3.125-1.188-3.813-2.5l-0.625-1.063-0.563 1.125c-0.563 1.125-1.563 1.75-2.875 2-1.75 0.313-3.625-0.313-4.438-0.688 1.125-3 3.688-5.063 6.563-5.063zM8.75 10c0-0.813 0.063-1.625 0.25-2.375 1.25 0.625 3.25 1.063 5.125 0.75 1.375-0.25 2.438-0.875 3.25-1.875 1.125 1.313 2.875 2.25 4.375 2.313 0 0 0.063 0 0.125 0 0.5 0 0.938-0.125 1.313-0.313 0.125 0.5 0.125 1 0.125 1.5 0 4.75-3.25 8.688-7.313 8.688-4 0-7.25-3.938-7.25-8.688zM30.625 30.688h-29.25v-3.188c0-1.438 0.875-2.688 2.125-3.125l9.188-2.563v-2.625c1 0.563 2.125 0.813 3.313 0.813s2.313-0.25 3.313-0.75v2.563l9.125 2.563c1.313 0.438 2.188 1.688 2.188 3.125z"></path>
</svg>
