<!-- Generated by IcoMoon.io -->
<svg version="1.1" xmlns="http://www.w3.org/2000/svg" width="32" height="32" viewBox="0 0 32 32">
<title>camera-symbol-3</title>
<path d="M19.313 8h-17.313c-1.125 0-2 0.875-2 2v14.688c0 1.063 0.875 2 2 2h17.313c1.125 0 2-0.938 2-2v-14.688c0-1.125-0.875-2-2-2zM20 24.688c0 0.375-0.313 0.625-0.688 0.625h-17.313c-0.375 0-0.688-0.25-0.688-0.625v-14.688c0-0.375 0.313-0.688 0.688-0.688h17.313c0.375 0 0.688 0.313 0.688 0.688zM31.688 9.438c-0.188-0.125-0.438-0.125-0.625-0.063l-8 4c-0.25 0.125-0.375 0.375-0.375 0.625v6.688c0 0.25 0.125 0.438 0.375 0.563l8 4c0.063 0.063 0.188 0.063 0.25 0.063 0.125 0 0.25 0 0.375-0.063 0.188-0.125 0.313-0.375 0.313-0.563v-14.688c0-0.25-0.125-0.438-0.313-0.563zM30.688 23.563l-6.688-3.313v-5.813l6.688-3.375z"></path>
</svg>
