<!-- Generated by IcoMoon.io -->
<svg version="1.1" xmlns="http://www.w3.org/2000/svg" width="32" height="32" viewBox="0 0 32 32">
<title>female</title>
<path d="M15.313 10.688c2.938 0 5.375-2.438 5.375-5.375s-2.438-5.313-5.375-5.313c-2.938 0-5.313 2.375-5.313 5.313s2.375 5.375 5.313 5.375zM15.313 1.313c2.25 0 4 1.813 4 4 0 2.25-1.75 4-4 4-2.188 0-4-1.75-4-4 0-2.188 1.813-4 4-4zM15.313 12c-4.438 0-8 5.875-8 13.313v0.688h4.688v6h6.688v-6h4.625v-0.688c0-7.438-3.5-13.313-8-13.313zM17.313 24.688v6h-4v-6h-4.625c0.188-6.438 3.063-11.375 6.625-11.375 3.625 0 6.5 4.938 6.688 11.375z"></path>
</svg>
