<!-- Generated by IcoMoon.io -->
<svg version="1.1" xmlns="http://www.w3.org/2000/svg" width="32" height="32" viewBox="0 0 32 32">
<title>movie-play-1</title>
<path d="M31.313 6.688h-30.625c-0.375 0-0.688 0.25-0.688 0.625v22.688c0 0.375 0.313 0.688 0.688 0.688h30.625c0.375 0 0.688-0.313 0.688-0.688v-22.688c0-0.375-0.313-0.625-0.688-0.625zM21.313 26.688v2.625h-10.625v-2.625zM1.313 25.313v-13.313h29.375v13.313zM10.688 10.688v-2.688h10.625v2.688zM30.688 10.688h-8v-2.688h8zM1.313 8h8v2.688h-8zM1.313 26.688h8v2.625h-8zM30.688 29.313h-8v-2.625h8zM20.25 18.063l-7.313-3.313c-0.188-0.125-0.438-0.125-0.625 0s-0.313 0.375-0.313 0.563v6.688c0 0.25 0.125 0.438 0.313 0.563 0.125 0.063 0.25 0.125 0.375 0.125 0.063 0 0.188-0.063 0.25-0.063l7.313-3.375c0.25-0.063 0.438-0.313 0.438-0.563 0-0.313-0.188-0.5-0.438-0.625zM13.313 20.938v-4.563l5.063 2.313z"></path>
</svg>
