<svg viewBox="0 0 32 32"><path d="M24.69 0H6C4.87 0 4 .88 4 2v28c0 1.13.88 2 2 2h18.69c1.06 0 2-.88 2-2V2c0-1.13-.94-2-2-2zm.62 30c0 .38-.25.69-.62.69H6a.7.7 0 0 1-.69-.69V2A.7.7 0 0 1 6 1.31h18.69c.37 0 .62.32.62.69zm-2-27.31h-16c-.37 0-.62.25-.62.62v6.7c0 .37.25.68.62.68h16a.7.7 0 0 0 .7-.69V3.31c0-.37-.32-.62-.7-.62zM22.7 9.3H8V4h14.69zm-2-1.31c.37 0 .62-.31.62-.69V6c0-.38-.25-.69-.62-.69S20 5.62 20 6V7.3c0 .38.31.69.69.69zM10 14.69H8.69c-.38 0-.7.25-.7.62s.32.7.7.7H10c.38 0 .69-.32.69-.7s-.31-.62-.69-.62zm4 0h-1.31c-.38 0-.7.25-.7.62s.32.7.7.7H14c.38 0 .69-.32.69-.7s-.31-.62-.69-.62zM16.69 16H18c.38 0 .69-.31.69-.69s-.31-.62-.69-.62H16.7c-.38 0-.69.25-.69.62s.31.69.69.69zM22 14.69h-1.31c-.38 0-.7.25-.7.62s.32.7.7.7H22c.38 0 .69-.32.69-.7s-.32-.62-.69-.62zm-12 4H8.69c-.38 0-.7.25-.7.62s.32.7.7.7H10c.38 0 .69-.32.69-.7s-.31-.62-.69-.62zm4 0h-1.31c-.38 0-.7.25-.7.62s.32.7.7.7H14c.38 0 .69-.32.69-.7s-.31-.62-.69-.62zM16.69 20H18c.38 0 .69-.31.69-.69s-.31-.62-.69-.62H16.7c-.38 0-.69.25-.69.62s.31.69.69.69zM22 18.69h-1.31c-.38 0-.7.25-.7.62s.32.7.7.7H22c.38 0 .69-.32.69-.7s-.32-.62-.69-.62zm-12 4H8.69c-.38 0-.7.25-.7.62s.32.7.7.7H10c.38 0 .69-.32.69-.7s-.31-.62-.69-.62zm4 0h-1.31c-.38 0-.7.25-.7.62s.32.7.7.7H14c.38 0 .69-.32.69-.7s-.31-.62-.69-.62zM16.69 24H18c.38 0 .69-.31.69-.69s-.31-.62-.69-.62H16.7c-.38 0-.69.25-.69.62s.31.69.69.69zM22 22.69h-1.31c-.38 0-.7.25-.7.62s.32.7.7.7H22c.38 0 .69-.32.69-.7s-.32-.62-.69-.62zm-12 4H8.69c-.38 0-.7.25-.7.62s.32.7.7.7H10c.38 0 .69-.32.69-.7s-.31-.62-.69-.62zm4 0h-1.31c-.38 0-.7.25-.7.62s.32.7.7.7H14c.38 0 .69-.32.69-.7s-.31-.62-.69-.62zm8 0h-5.31c-.38 0-.7.25-.7.62s.32.7.7.7H22c.38 0 .69-.32.69-.7s-.32-.62-.69-.62z"></path></svg>