<svg viewBox="0 0 32 32"><path d="M15.31 0A15.34 15.34 0 0 0 0 15.31c0 4.07 1.56 7.94 4.5 10.82a14.98 14.98 0 0 0 10.81 4.56c8.44 0 15.32-6.88 15.38-15.31A15.4 15.4 0 0 0 15.3 0zm0 29.31c-3.75 0-7.25-1.43-9.87-4.12A13.65 13.65 0 0 1 1.3 15.3c.07-7.69 6.32-14 14.07-14 7.68.07 14 6.32 13.93 14.07 0 7.68-6.25 13.93-14 13.93zM21.5 9.2a.76.76 0 0 0-1 0l-5.19 5.19-5.12-5.2a.76.76 0 0 0-1 0 .68.68 0 0 0 0 .95l5.19 5.18-5.2 5.2a.68.68 0 0 0 0 .93c.13.12.32.19.5.19.13 0 .32-.07.45-.19l5.18-5.19 5.2 5.25a.68.68 0 0 0 .94 0c.24-.31.24-.69-.01-.94l-5.19-5.25 5.25-5.12a.76.76 0 0 0 0-1z"></path></svg>