<svg viewBox="0 0 32 32"><path d="M16 0C7.19 0 0 7.19 0 16s7.19 16 16 16c8.81 0 16-7.19 16-16S24.81 0 16 0zm0 30.69C7.94 30.69 1.31 24.06 1.31 16S7.94 1.31 16 1.31c8.06 0 14.69 6.63 14.69 14.69S24.06 30.69 16 30.69zM22.13 7A10.88 10.88 0 0 0 7 22.13l.44.68L22.8 7.44zM7.69 20.69A9.57 9.57 0 0 1 6.44 16 9.6 9.6 0 0 1 16 6.44c1.63 0 3.25.43 4.69 1.25zM25 9.87l-.44-.68L9.2 24.56l.69.44A10.88 10.88 0 0 0 25 9.87zm-9 15.7a9.58 9.58 0 0 1-4.69-1.26l13-13a9.57 9.57 0 0 1 1.25 4.7A9.6 9.6 0 0 1 16 25.55z"></path></svg>