<svg viewBox="0 0 32 32"><path d="M15.31 0A15.34 15.34 0 0 0 0 15.31 15.3 15.3 0 1 0 15.31 0zm12.94 20.75a12.95 12.95 0 0 1-3 4.44 13.28 13.28 0 0 1-7.13 3.87c-.87.2-1.81.32-2.81.32a14.33 14.33 0 0 1-7.81-2.44c-.75-.5-1.44-1.07-2.07-1.75-.62-.57-1.18-1.32-1.75-2-.43-.82-.87-1.57-1.25-2.44a13.43 13.43 0 0 1-1.06-5.44c0-.94.06-1.87.25-2.81a14.12 14.12 0 0 1 2.06-5c.57-.75 1.13-1.44 1.75-2.06s1.32-1.2 2.07-1.75a14.12 14.12 0 0 1 5-2.06c.94-.2 1.87-.26 2.81-.26a13.88 13.88 0 0 1 5.5 1.07c.81.37 1.56.8 2.38 1.25.68.56 1.43 1.12 2.06 1.75s1.19 1.3 1.69 2.06c.5.75.93 1.56 1.31 2.37a14.12 14.12 0 0 1 .81 8.26 11.7 11.7 0 0 1-.81 2.62zm-10.88-5.63l-8.8 8.82-1-.94 7.87-7.87-7.88-7.88 1-.94zm8.38 0l-8.81 8.82L16 23l7.87-7.87L16 7.25l.94-.94 8.81 8.82z"></path></svg>