<svg viewBox="0 0 32 32"><path d="M27.94 8.44c0-.13-.07-.19-.13-.25l-8-8c-.06-.06-.12-.13-.25-.13C19.5 0 19.44 0 19.31 0H4.7A.7.7 0 0 0 4 .69V31.3c0 .38.31.7.69.7H27.3a.7.7 0 0 0 .7-.7V8.7c0-.13 0-.19-.07-.25zM20 2.25L25.75 8H20zM5.31 30.69V1.3H18.7V8.7c0 .37.25.62.62.62h7.38V30.7zm4.69-20h6c.38 0 .69-.32.69-.69s-.32-.69-.69-.69h-6c-.38 0-.69.31-.69.69s.31.69.69.69zm12 2.62H10c-.38 0-.69.32-.69.7s.31.68.69.68h12c.38 0 .69-.31.69-.69s-.32-.69-.69-.69zm0 4H10c-.38 0-.69.32-.69.7s.31.68.69.68h12c.38 0 .69-.31.69-.69s-.32-.69-.69-.69zm0 4H10c-.38 0-.69.32-.69.7s.31.68.69.68h12c.38 0 .69-.31.69-.69s-.32-.69-.69-.69zm0 4H10c-.38 0-.69.32-.69.7s.31.68.69.68h12c.38 0 .69-.31.69-.69s-.32-.69-.69-.69z"></path></svg>