<svg viewBox="0 0 32 32"><path d="M31.31 4H.7a.7.7 0 0 0-.69.69V26c0 .38.31.69.69.69H6A.7.7 0 0 0 6.7 26v-1c0-.94.75-1.69 1.62-1.69.94 0 1.7.75 1.7 1.7v1c0 .37.3.68.68.68h10.63A.7.7 0 0 0 22 26v-1c0-.94.75-1.69 1.7-1.69.87 0 1.62.75 1.62 1.7v1c0 .37.3.68.68.68h5.32A.7.7 0 0 0 32 26V4.7a.7.7 0 0 0-.68-.69zm-.62 21.31h-4V25c0-1.63-1.38-3-3-3a3 3 0 0 0-3 3v.31H11.3V25a3 3 0 0 0-3-3c-1.62 0-3 1.38-3 3v.31h-4v-20H30.7zm-16-7.31c0-1.63-.88-3.5-3-4.31a3.2 3.2 0 0 0 1-2.38 3.35 3.35 0 0 0-6.69 0c0 .94.38 1.82 1 2.38-2.19.81-3 2.69-3 4.31v.69h10.69zM9.3 9.31c1.13 0 2 .94 2 2 0 1.13-.87 2-2 2-1.06 0-2-.87-2-2 0-1.06.94-2 2-2zm-3.94 8c.25-1.06 1-2.62 3.94-2.62 3 0 3.75 1.56 3.94 2.62zm11.94 0h10.7v1.38H17.3zm0-2.62h10.7V16H17.3zm0-2.69h10.7v1.31H17.3zm0-2.69h5.38v1.38H17.3z"></path></svg>