<svg viewBox="0 0 32 32"><path d="M0 0v32h32V0zm30.56 30.56H1.44V1.44h29.12zM7.31 26.63a3.26 3.26 0 0 0 3.32-3.32c0-.25 0-.5-.07-.75l3.63-2.31a3.6 3.6 0 0 0 2.5 1.12A3.39 3.39 0 0 0 20 18c0-.75-.25-1.44-.62-1.94l4.25-5.56c.3.12.68.12 1.06.12A3.3 3.3 0 0 0 28 7.31C28 5.5 26.5 4 24.7 4s-3.31 1.5-3.31 3.31c0 1 .43 1.94 1.12 2.56l-4.12 5.25c-.5-.25-1.13-.5-1.7-.5a3.35 3.35 0 0 0-3.3 3.38c0 .37.06.75.12 1.06L10 21.37A3.13 3.13 0 0 0 7.31 20C5.5 20 4 21.5 4 23.3s1.5 3.32 3.31 3.32zm15.94-20.7c.38-.37.88-.56 1.44-.56.5 0 1 .2 1.37.57s.57.87.57 1.37c0 .57-.2 1.07-.57 1.44s-.87.63-1.37.63c-.57 0-1.07-.25-1.44-.63s-.63-.87-.63-1.44c0-.5.25-1 .63-1.37zm-8 10.63c.38-.37.88-.56 1.44-.56.5 0 1 .19 1.37.56s.57.94.57 1.44-.2 1.06-.57 1.44c-.37.31-.87.56-1.37.56-.57 0-1.07-.25-1.44-.56a2.15 2.15 0 0 1-.63-1.44c0-.56.25-1.06.63-1.44zm-9.31 5.38c.37-.38.87-.57 1.37-.57.57 0 1.07.2 1.44.57s.63.87.63 1.37c0 .57-.25 1.07-.63 1.44s-.87.63-1.44.63c-.5 0-1-.25-1.37-.63s-.57-.87-.57-1.44c0-.5.2-1 .57-1.37z"></path></svg>