<svg viewBox="0 0 32 32"><path d="M30 2.69H2c-1.13 0-2 .87-2 2V22c0 1.13.88 2 2 2h2v6.25L10.25 24H30c1.13 0 2-.87 2-2V4.7c0-1.13-.88-2-2-2zM30.69 22a.7.7 0 0 1-.69.69H9.75l-4.44 4.37V22.7H2A.7.7 0 0 1 1.3 22V4.69a.7.7 0 0 1 .69-.7h28a.7.7 0 0 1 .69.7zM12 13.31c0 .75-.63 1.38-1.31 1.38-.75 0-1.38-.63-1.38-1.38 0-.68.63-1.31 1.38-1.31.68 0 1.31.63 1.31 1.31zm10.69 0c0 .75-.63 1.38-1.38 1.38-.68 0-1.31-.63-1.31-1.38 0-.68.63-1.31 1.31-1.31.75 0 1.38.63 1.38 1.31zm-5.38 0c0 .75-.56 1.38-1.31 1.38s-1.31-.63-1.31-1.38c0-.68.56-1.31 1.31-1.31s1.31.63 1.31 1.31z"></path></svg>