<svg viewBox="0 0 1024 1024"><path d="M512 1002.6c270.5 0 490.7-220.1 490.7-490.7S782.5 21.3 512 21.3 21.3 241.4 21.3 511.9s220.1 490.7 490.7 490.7zm448-490.7c0 247-201 448-448 448s-448-201-448-448 201-448 448-448 448 201 448 448zm-448 192c-17.7 0-32 14.3-32 32s14.3 32 32 32 32-14.3 32-32-14.3-32-32-32zm0-42.7c11.8 0 21.3-9.6 21.3-21.3v-17.6c0-25.5 15.1-48.4 38.4-58.7 54.4-23.7 89.6-77.5 89.6-136.9 0-39.9-15.5-77.3-43.8-105.6-28.2-28.2-65.7-43.8-105.6-43.8s-77.4 15.6-105.6 43.7a148 148 0 0 0-43.8 105.6c0 11.8 9.6 21.3 21.3 21.3s21.3-9.6 21.3-21.3c0-28.5 11.1-55.3 31.2-75.4s46.9-31.2 75.4-31.2c28.4.1 55.2 11.1 75.4 31.3s31.3 46.9 31.3 75.4c0 42.4-25.1 80.8-64 97.8s-64 55.4-64 97.8v17.6c.3 11.7 9.8 21.3 21.6 21.3z"></path></svg>