<svg viewBox="0 0 32 32"><path d="M31.94 20.94c.06-.19.06-.38 0-.5 0-.13-.07-.19-.13-.25l-5.31-5.32a.76.76 0 0 0-1 0 .68.68 0 0 0 0 .94l4.25 4.2H12.69c-.38 0-.7.3-.7.68s.32.62.7.62h17.06l-4.25 4.2a.76.76 0 0 0 0 1c.19.12.31.18.5.18s.31-.06.5-.19l5.31-5.37c.07-.07.13-.13.13-.2zM2.25 14.69h17.06c.38 0 .7-.31.7-.69s-.32-.69-.7-.69H2.25L6.5 9.12a.68.68 0 0 0 0-.93.76.76 0 0 0-1 0l-5.31 5.3a.47.47 0 0 0-.13.26.68.68 0 0 0 0 .5c0 .06.07.19.13.25L5.5 19.8c.19.13.31.19.5.19s.31-.06.5-.19a.68.68 0 0 0 0-.94z"></path></svg>