<svg viewBox="0 0 32 32"><path d="M32 23.19c0-.25-.06-.82-.56-1.57a6.74 6.74 0 0 0-2.82-2.06 5.9 5.9 0 0 1-1.06-.56c-.81-.5-1.94-1.06-3.25-1.5.31-.63.63-1.31.88-2.06a4.9 4.9 0 0 0 .37-2.63v-.31c0-.19.06-.44.06-.69 0-.75.07-1.56-.12-2.25a4.98 4.98 0 0 0-2.13-2.94c-.43-.31-1-.5-1.56-.62-.44-.13-1-.13-1.56-.13s-1.06 0-1.56.13a4.64 4.64 0 0 0-3.63 3.63c-.19.62-.19 1.5-.13 2.18v1c0 .88 0 1.69.38 2.63.25.68.5 1.37.87 2.06-1.3.44-2.37 1-3.18 1.5l-.44.25.37-1c.32-.75.32-1.38.32-2v-.31-.44c0-.56.06-1.19-.07-1.75-.18-.5-.37-1-.68-1.38a2.72 2.72 0 0 0-1.07-1 3.35 3.35 0 0 0-1.19-.43A6.98 6.98 0 0 0 9 10.8c-.43 0-.8.06-1.25.13s-.8.25-1.18.43c-.44.25-.75.63-1.07 1s-.5.88-.62 1.44c-.19.5-.13 1.13-.13 1.69v.75c0 .63 0 1.31.32 2 .12.44.3.81.5 1.19-.82.31-1.44.69-2 1-.32.12-.57.25-.75.37C.49 21.88.1 23.2.06 23.56l-.07.13v2.94h32zm-23.69 0v2.19H1.38v-1.63s.12-.87 2-1.75c.87-.37 2.25-1.44 4.25-1.75-.5-.56-.88-1.44-1.32-2.44-.25-.62-.19-1.12-.19-1.87 0-.5-.12-1.38 0-1.82.44-1.56 1.57-2 2.88-2s2.44.44 2.87 2c.2.44 0 1.32 0 1.82 0 .75.07 1.25-.18 1.87a7.07 7.07 0 0 1-1.07 2.07c-2.12 1.37-2.31 2.87-2.31 3.3zm22.31 2.18H9.88V23.2s.07-1.25 2.63-2.44c1.25-.5 3.06-1.94 5.81-2.44A10.21 10.21 0 0 1 16.56 15c-.31-.88-.31-1.5-.31-2.5 0-.75-.13-1.94.06-2.56.63-2.2 2.13-2.75 3.94-2.75s3.31.56 3.94 2.75c.19.62.06 1.8.06 2.56 0 1 .06 1.62-.31 2.44-.5 1.43-1 2.62-1.75 3.37 2.75.5 4.62 1.94 5.87 2.44 2.57 1.19 2.57 2.44 2.57 2.44z"></path></svg>